<svg width="140" height="43" viewBox="0 0 140 43" fill="none" xmlns="http://www.w3.org/2000/svg">
<path d="M139.488 37.8819C139.488 40.2136 137.693 42.1023 135.472 42.1023H4.02199C1.80199 42.1023 0 40.2136 0 37.8819V4.22587C0 1.89531 1.80199 0 4.02199 0H135.471C137.693 0 139.487 1.89531 139.487 4.22587L139.488 37.8819Z" fill="#10131A"/>
<path opacity="0.2" d="M44.5195 9.36328H46.5391C47.3802 9.36328 48.0352 9.60938 48.5039 10.1016C48.9727 10.5938 49.207 11.2839 49.207 12.1719C49.207 13.0625 48.9727 13.7565 48.5039 14.2539C48.0352 14.7513 47.3802 15 46.5391 15H44.5195V9.36328ZM45.3945 10.1172V14.2422H46.457C47.056 14.2422 47.5156 14.0651 47.8359 13.7109C48.1562 13.3542 48.3164 12.8438 48.3164 12.1797C48.3164 11.5156 48.1562 11.0065 47.8359 10.6523C47.5156 10.2956 47.056 10.1172 46.457 10.1172H45.3945ZM52.7805 9.26953C53.5904 9.26953 54.2323 9.53125 54.7063 10.0547C55.1828 10.5781 55.4211 11.2878 55.4211 12.1836C55.4211 13.0794 55.1841 13.7891 54.7102 14.3125C54.2362 14.8333 53.593 15.0938 52.7805 15.0938C51.968 15.0938 51.3247 14.8333 50.8508 14.3125C50.3768 13.7891 50.1398 13.0794 50.1398 12.1836C50.1398 11.2878 50.3768 10.5781 50.8508 10.0547C51.3247 9.53125 51.968 9.26953 52.7805 9.26953ZM52.7805 10.0391C52.244 10.0391 51.8182 10.2318 51.5031 10.6172C51.1906 11.0026 51.0344 11.5247 51.0344 12.1836C51.0344 12.8398 51.1906 13.3607 51.5031 13.7461C51.8182 14.1315 52.244 14.3242 52.7805 14.3242C53.3143 14.3242 53.7375 14.1315 54.05 13.7461C54.3651 13.3607 54.5227 12.8398 54.5227 12.1836C54.5227 11.5247 54.3651 11.0026 54.05 10.6172C53.7375 10.2318 53.3143 10.0391 52.7805 10.0391ZM59.5766 10.75L58.3617 15H57.5336L56.0141 9.36328H56.9242L57.9672 13.7773H57.9984L59.1898 9.36328H60.0023L61.1977 13.7773H61.2289L62.2719 9.36328H63.182L61.6586 15H60.8344L59.6156 10.75H59.5766ZM65.0289 15H64.1773V9.36328H64.9703L67.8922 13.5195H67.9234V9.36328H68.775V15H67.9859L65.0641 10.8477H65.0289V15ZM73.618 14.2422V15H70.118V9.36328H70.993V14.2422H73.618ZM76.8711 9.26953C77.681 9.26953 78.3229 9.53125 78.7969 10.0547C79.2734 10.5781 79.5117 11.2878 79.5117 12.1836C79.5117 13.0794 79.2747 13.7891 78.8008 14.3125C78.3268 14.8333 77.6836 15.0938 76.8711 15.0938C76.0586 15.0938 75.4154 14.8333 74.9414 14.3125C74.4674 13.7891 74.2305 13.0794 74.2305 12.1836C74.2305 11.2878 74.4674 10.5781 74.9414 10.0547C75.4154 9.53125 76.0586 9.26953 76.8711 9.26953ZM76.8711 10.0391C76.3346 10.0391 75.9089 10.2318 75.5938 10.6172C75.2812 11.0026 75.125 11.5247 75.125 12.1836C75.125 12.8398 75.2812 13.3607 75.5938 13.7461C75.9089 14.1315 76.3346 14.3242 76.8711 14.3242C77.4049 14.3242 77.8281 14.1315 78.1406 13.7461C78.4557 13.3607 78.6133 12.8398 78.6133 12.1836C78.6133 11.5247 78.4557 11.0026 78.1406 10.6172C77.8281 10.2318 77.4049 10.0391 76.8711 10.0391ZM84.132 15L83.6164 13.4766H81.468L80.9523 15H80.0422L82.0773 9.36328H83.0227L85.0578 15H84.132ZM82.5305 10.3008L81.6906 12.7734H83.3938L82.5539 10.3008H82.5305ZM85.9789 9.36328H87.9984C88.8396 9.36328 89.4945 9.60938 89.9633 10.1016C90.432 10.5938 90.6664 11.2839 90.6664 12.1719C90.6664 13.0625 90.432 13.7565 89.9633 14.2539C89.4945 14.7513 88.8396 15 87.9984 15H85.9789V9.36328ZM86.8539 10.1172V14.2422H87.9164C88.5154 14.2422 88.975 14.0651 89.2953 13.7109C89.6156 13.3542 89.7758 12.8438 89.7758 12.1797C89.7758 11.5156 89.6156 11.0065 89.2953 10.6523C88.975 10.2956 88.5154 10.1172 87.9164 10.1172H86.8539ZM96.3836 9.26953C97.1935 9.26953 97.8354 9.53125 98.3094 10.0547C98.7859 10.5781 99.0242 11.2878 99.0242 12.1836C99.0242 13.0794 98.7872 13.7891 98.3133 14.3125C97.8393 14.8333 97.1961 15.0938 96.3836 15.0938C95.5711 15.0938 94.9279 14.8333 94.4539 14.3125C93.9799 13.7891 93.743 13.0794 93.743 12.1836C93.743 11.2878 93.9799 10.5781 94.4539 10.0547C94.9279 9.53125 95.5711 9.26953 96.3836 9.26953ZM96.3836 10.0391C95.8471 10.0391 95.4214 10.2318 95.1063 10.6172C94.7938 11.0026 94.6375 11.5247 94.6375 12.1836C94.6375 12.8398 94.7938 13.3607 95.1063 13.7461C95.4214 14.1315 95.8471 14.3242 96.3836 14.3242C96.9174 14.3242 97.3406 14.1315 97.6531 13.7461C97.9682 13.3607 98.1258 12.8398 98.1258 12.1836C98.1258 11.5247 97.9682 11.0026 97.6531 10.6172C97.3406 10.2318 96.9174 10.0391 96.3836 10.0391ZM101.012 15H100.16V9.36328H100.953L103.875 13.5195H103.906V9.36328H104.758V15H103.969L101.047 10.8477H101.012V15ZM110.549 15H109.674V10.1172H107.916V9.36328H112.303V10.1172H110.549V15ZM117.963 15H117.088V12.5039H114.193V15H113.318V9.36328H114.193V11.7461H117.088V9.36328H117.963V15ZM122.876 14.2422V15H119.298V9.36328H122.876V10.1172H120.173V11.7656H122.731V12.4922H120.173V14.2422H122.876Z" fill="white"/>
<path d="M52.3203 31L51.4609 28.2656H47.5L46.6406 31H44.2188L48.1328 19.7266H50.9062L54.8281 31H52.3203ZM49.4531 21.8828L48.0078 26.5H50.9531L49.5078 21.8828H49.4531ZM60.7891 22.2969C61.8828 22.2969 62.7448 22.6901 63.375 23.4766C64.0052 24.2578 64.3203 25.3307 64.3203 26.6953C64.3203 28.0599 64.0052 29.1354 63.375 29.9219C62.75 30.7083 61.8984 31.1016 60.8203 31.1016C60.2005 31.1016 59.6589 30.9661 59.1953 30.6953C58.7318 30.4245 58.3828 30.0443 58.1484 29.5547H58.1016V33.7031H55.8203V22.3984H58.0703V23.8672H58.1172C58.3464 23.3828 58.6979 23 59.1719 22.7188C59.6458 22.4375 60.1849 22.2969 60.7891 22.2969ZM60.0312 29.2578C60.625 29.2578 61.099 29.026 61.4531 28.5625C61.8073 28.099 61.9844 27.4766 61.9844 26.6953C61.9844 25.9245 61.8047 25.3073 61.4453 24.8438C61.0911 24.375 60.6198 24.1406 60.0312 24.1406C59.4479 24.1406 58.9792 24.375 58.625 24.8438C58.2708 25.3125 58.0938 25.9323 58.0938 26.7031C58.0938 27.474 58.2708 28.0938 58.625 28.5625C58.9792 29.026 59.4479 29.2578 60.0312 29.2578ZM70.5078 22.2969C71.6016 22.2969 72.4635 22.6901 73.0938 23.4766C73.724 24.2578 74.0391 25.3307 74.0391 26.6953C74.0391 28.0599 73.724 29.1354 73.0938 29.9219C72.4688 30.7083 71.6172 31.1016 70.5391 31.1016C69.9193 31.1016 69.3776 30.9661 68.9141 30.6953C68.4505 30.4245 68.1016 30.0443 67.8672 29.5547H67.8203V33.7031H65.5391V22.3984H67.7891V23.8672H67.8359C68.0651 23.3828 68.4167 23 68.8906 22.7188C69.3646 22.4375 69.9036 22.2969 70.5078 22.2969ZM69.75 29.2578C70.3438 29.2578 70.8177 29.026 71.1719 28.5625C71.526 28.099 71.7031 27.4766 71.7031 26.6953C71.7031 25.9245 71.5234 25.3073 71.1641 24.8438C70.8099 24.375 70.3385 24.1406 69.75 24.1406C69.1667 24.1406 68.6979 24.375 68.3438 24.8438C67.9896 25.3125 67.8125 25.9323 67.8125 26.7031C67.8125 27.474 67.9896 28.0938 68.3438 28.5625C68.6979 29.026 69.1667 29.2578 69.75 29.2578ZM78.4375 27.7891H80.7109C80.763 28.2474 81.0052 28.6198 81.4375 28.9062C81.875 29.1875 82.4089 29.3281 83.0391 29.3281C83.6641 29.3281 84.1719 29.1953 84.5625 28.9297C84.9583 28.6589 85.1562 28.3151 85.1562 27.8984C85.1562 27.5339 85.0104 27.2396 84.7188 27.0156C84.4271 26.7917 83.9401 26.6042 83.2578 26.4531L81.7891 26.1328C79.7214 25.6901 78.6875 24.6406 78.6875 22.9844C78.6875 21.9531 79.0885 21.1198 79.8906 20.4844C80.6979 19.849 81.7344 19.5312 83 19.5312C84.3021 19.5312 85.3411 19.8411 86.1172 20.4609C86.8932 21.0755 87.2917 21.8958 87.3125 22.9219H85.1016C85.0651 22.4479 84.8542 22.0755 84.4688 21.8047C84.0885 21.5286 83.6016 21.3906 83.0078 21.3906C82.4245 21.3906 81.9531 21.5182 81.5938 21.7734C81.2396 22.0286 81.0625 22.3646 81.0625 22.7812C81.0625 23.125 81.2057 23.4036 81.4922 23.6172C81.7839 23.8307 82.2552 24.013 82.9062 24.1641L84.2734 24.4531C85.4036 24.6927 86.2266 25.0677 86.7422 25.5781C87.2578 26.0833 87.5156 26.7656 87.5156 27.625C87.5156 28.7188 87.1042 29.5885 86.2812 30.2344C85.4583 30.875 84.3464 31.1953 82.9453 31.1953C81.5859 31.1953 80.5026 30.8932 79.6953 30.2891C78.8932 29.6797 78.474 28.8464 78.4375 27.7891ZM89.4141 20.4844H91.6953V22.3984H93.2891V24.125H91.6953V28.3047C91.6953 28.9609 92.0365 29.2891 92.7188 29.2891C92.9427 29.2891 93.1328 29.276 93.2891 29.25V30.9375C92.9766 31 92.6094 31.0312 92.1875 31.0312C91.1927 31.0312 90.4818 30.849 90.0547 30.4844C89.6276 30.1198 89.4141 29.5182 89.4141 28.6797V24.125H88.25V22.3984H89.4141V20.4844ZM98.3984 31.1484C97.0911 31.1484 96.0573 30.7526 95.2969 29.9609C94.5365 29.1693 94.1562 28.0807 94.1562 26.6953C94.1562 25.3255 94.5391 24.2422 95.3047 23.4453C96.0703 22.6484 97.1016 22.25 98.3984 22.25C99.7005 22.25 100.732 22.6484 101.492 23.4453C102.258 24.237 102.641 25.3203 102.641 26.6953C102.641 28.0859 102.26 29.1771 101.5 29.9688C100.745 30.7552 99.7109 31.1484 98.3984 31.1484ZM96.9766 28.6875C97.3203 29.1562 97.7943 29.3906 98.3984 29.3906C99.0026 29.3906 99.474 29.1562 99.8125 28.6875C100.151 28.2135 100.32 27.5495 100.32 26.6953C100.32 25.8516 100.148 25.1927 99.8047 24.7188C99.4661 24.2396 98.9974 24 98.3984 24C97.7943 24 97.3203 24.2396 96.9766 24.7188C96.638 25.1927 96.4688 25.8516 96.4688 26.6953C96.4688 27.5495 96.638 28.2135 96.9766 28.6875ZM103.867 31V22.3984H106.07V23.9375H106.117C106.263 23.4115 106.513 23.0078 106.867 22.7266C107.221 22.4401 107.654 22.2969 108.164 22.2969C108.419 22.2969 108.633 22.3255 108.805 22.3828V24.4062C108.602 24.3125 108.328 24.2656 107.984 24.2656C107.406 24.2656 106.956 24.4349 106.633 24.7734C106.31 25.112 106.148 25.5833 106.148 26.1875V31H103.867ZM113.359 23.9531C112.839 23.9531 112.404 24.125 112.055 24.4688C111.711 24.8125 111.518 25.2604 111.477 25.8125H115.188C115.167 25.25 114.99 24.7995 114.656 24.4609C114.323 24.1224 113.891 23.9531 113.359 23.9531ZM115.219 28.375H117.32C117.195 29.2083 116.776 29.8802 116.062 30.3906C115.349 30.8958 114.469 31.1484 113.422 31.1484C112.115 31.1484 111.083 30.7552 110.328 29.9688C109.578 29.1823 109.203 28.1042 109.203 26.7344C109.203 25.3646 109.576 24.276 110.32 23.4688C111.07 22.6562 112.076 22.25 113.336 22.25C114.576 22.25 115.56 22.6354 116.289 23.4062C117.023 24.1771 117.391 25.2161 117.391 26.5234V27.2266H111.453V27.3672C111.453 27.987 111.638 28.4896 112.008 28.875C112.378 29.2552 112.862 29.4453 113.461 29.4453C113.893 29.4453 114.266 29.3516 114.578 29.1641C114.896 28.9714 115.109 28.7083 115.219 28.375Z" fill="white"/>
<path d="M30.6312 20.3851C30.6008 17.0565 33.396 15.4371 33.5238 15.3617C31.9408 13.0865 29.4872 12.7756 28.6249 12.7508C26.5642 12.537 24.5652 13.9664 23.5155 13.9664C22.4447 13.9664 20.8282 12.7715 19.0859 12.8066C16.8439 12.8407 14.7465 14.1203 13.5961 16.1073C11.2221 20.1589 12.9927 26.1129 15.2672 29.3879C16.4049 30.9918 17.7344 32.7826 19.4746 32.7196C21.1771 32.6504 21.813 31.6496 23.8675 31.6496C25.9031 31.6496 26.5003 32.7196 28.275 32.6793C30.1021 32.6504 31.2525 31.0682 32.3504 29.4498C33.6652 27.6115 34.1933 25.801 34.2142 25.7081C34.1713 25.6936 30.6658 24.3747 30.6312 20.3851Z" fill="white"/>
<path d="M27.2782 10.5961C28.1938 9.46726 28.8203 7.93151 28.6464 6.37305C27.3211 6.43088 25.6637 7.27673 24.7093 8.38077C23.8649 9.35365 23.1106 10.9483 23.3054 12.4479C24.7942 12.5573 26.3227 11.7074 27.2782 10.5961Z" fill="white"/>
</svg>
