<svg width="7" height="5" viewBox="0 0 7 5" fill="none" xmlns="http://www.w3.org/2000/svg">
<path d="M3.50002 3.69775L0.743498 0.941171C0.696747 0.894444 0.642945 0.871057 0.582166 0.871057C0.521387 0.871057 0.467585 0.89442 0.420932 0.941171L0.070188 1.29192C0.0234614 1.33869 -1.55641e-07 1.39247 -1.52991e-07 1.4531C-1.50333e-07 1.5139 0.0234614 1.56768 0.070188 1.61443L3.33867 4.88306C3.38542 4.92981 3.43922 4.95312 3.5 4.95312C3.5608 4.95312 3.61458 4.92981 3.66133 4.88306L6.92981 1.6146C6.97664 1.56778 7 1.51395 7 1.45317C7 1.39247 6.97664 1.33869 6.92981 1.29194L6.57931 0.941196C6.53256 0.894469 6.47874 0.871155 6.41791 0.871155C6.35718 0.871155 6.3034 0.894445 6.25665 0.941196L3.50002 3.69775Z" fill="white"/>
</svg>
