<svg width="16" height="8" viewBox="0 0 16 8" fill="none" xmlns="http://www.w3.org/2000/svg">
<path d="M0.0926876 3.75993L3.64816 0.519145C3.74694 0.438911 3.85494 0.423474 3.97224 0.472866C4.08941 0.522323 4.14824 0.611768 4.14824 0.741459V2.81555H15.7037C15.7902 2.81555 15.8612 2.84327 15.9167 2.89883C15.9721 2.95435 16 3.02537 16 3.11177V4.8895C16 4.97586 15.9723 5.04689 15.9167 5.10234C15.8611 5.15787 15.7901 5.1856 15.7037 5.1856H4.14818V7.25965C4.14818 7.38328 4.08925 7.47272 3.97214 7.52811C3.85474 7.5777 3.74675 7.55895 3.64796 7.47272L0.0924931 4.1947C0.030777 4.13302 0 4.05908 0 3.97258C0 3.89254 0.0309715 3.82165 0.0926876 3.75993Z" fill="#313131"/>
</svg>
