<svg width="557" height="557" viewBox="0 0 557 557" fill="none" xmlns="http://www.w3.org/2000/svg">
<g opacity="0.2">
<mask id="path-1-inside-1" fill="white">
<path d="M230.482 182.116C230.482 182.116 422.182 86.2699 556.999 202.621L478.59 191.421C478.59 191.421 535.693 218.521 557 313.586C534.841 273.151 502.454 237.018 489.243 241.319C503.732 265.408 569.358 477.475 383.986 544.579C344.354 560.495 226.739 571.679 122.76 508.876C162.391 490.81 190.516 455.967 191.369 452.956C165.8 471.453 120.629 480.916 92.9295 485.218C31.1386 426.287 -18.7202 307.994 6.84843 197.874C23.8942 225.834 56.2811 249.062 63.0994 252.503C36.6785 220.672 24.7465 185.399 19.2066 159.59C31.1386 131.199 48.6105 103.669 73.753 78.2902C77.5883 116.144 92.9295 167.763 99.3216 175.936C95.9125 121.306 95.0602 83.8823 95.9125 57.6427C98.0432 56.3523 99.7478 54.6317 101.878 52.911C125.316 38.2857 153.442 22.8001 187.96 12.4764C151.311 57.6427 145.345 120.446 145.345 120.446C172.618 58.0729 220.773 21.0795 256.569 0.431988C307.28 -2.14895 368.218 6.45418 443.22 36.5651C418.503 33.554 355.434 27.5318 296.2 40.0064C284.694 42.1571 273.614 45.1682 262.535 49.4698C247.62 54.6317 233.557 61.9443 221.199 70.9776L220.773 71.4077L220.346 71.8379C170.914 105.82 135.97 160.45 133.839 214.65C128.726 359.182 197.761 426.287 278.728 429.298C352.451 432.309 413.816 382.411 427.452 314.016V313.586C435.975 265.838 320.49 183.678 252.733 244.761C257.847 229.705 254.864 199.164 285.12 187.12C293.303 183.979 308.467 181.654 327.5 180.371C280.683 177.335 242.313 176.84 230.482 182.116Z"/>
</mask>
<path d="M435.975 222.393L435.995 222.642L435.995 222.642L435.975 222.393ZM403.162 205.616L403.403 205.548L403.396 205.526L403.386 205.505L403.162 205.616ZM459.839 203.896L460.086 203.934L460.131 203.641L459.836 203.646L459.839 203.896ZM330 180.333L329.984 180.084L330 180.333ZM435.955 222.143C425.126 223.001 417.62 221.069 412.511 217.826C407.404 214.584 404.667 210.016 403.403 205.548L402.922 205.685C404.214 210.25 407.017 214.93 412.244 218.248C417.468 221.565 425.091 223.505 435.995 222.642L435.955 222.143ZM403.386 205.505C403.42 205.574 403.416 205.653 403.383 205.715C403.357 205.762 403.323 205.784 403.319 205.787C403.307 205.794 403.312 205.789 403.355 205.776C403.433 205.755 403.567 205.73 403.762 205.703C404.148 205.651 404.733 205.598 405.493 205.545C407.009 205.439 409.201 205.335 411.848 205.234C417.139 205.033 424.236 204.845 431.347 204.683C438.457 204.522 445.581 204.388 450.928 204.294C453.601 204.247 455.83 204.21 457.39 204.184C458.171 204.172 458.784 204.162 459.202 204.156C459.411 204.152 459.571 204.15 459.679 204.148C459.733 204.147 459.774 204.147 459.802 204.146C459.815 204.146 459.826 204.146 459.833 204.146C459.836 204.146 459.839 204.146 459.84 204.146C459.841 204.146 459.842 204.146 459.842 204.146C459.843 204.146 459.843 204.146 459.839 203.896C459.836 203.646 459.835 203.646 459.835 203.646C459.834 203.646 459.834 203.646 459.833 203.646C459.831 203.646 459.829 203.646 459.825 203.646C459.818 203.646 459.808 203.646 459.794 203.646C459.767 203.647 459.726 203.648 459.672 203.648C459.564 203.65 459.403 203.652 459.194 203.656C458.776 203.662 458.163 203.672 457.382 203.685C455.822 203.71 453.593 203.747 450.919 203.794C445.572 203.888 438.447 204.022 431.335 204.184C424.224 204.345 417.124 204.533 411.829 204.735C409.181 204.836 406.983 204.94 405.458 205.046C404.696 205.099 404.098 205.153 403.695 205.208C403.495 205.235 403.333 205.263 403.22 205.295C403.167 205.31 403.103 205.331 403.049 205.366C403.023 205.382 402.976 205.417 402.943 205.477C402.902 205.553 402.898 205.646 402.938 205.727L403.386 205.505ZM459.839 203.896C459.592 203.858 459.592 203.858 459.592 203.858C459.592 203.858 459.592 203.858 459.592 203.858C459.592 203.859 459.592 203.859 459.592 203.86C459.592 203.862 459.591 203.864 459.591 203.868C459.589 203.875 459.588 203.886 459.585 203.901C459.58 203.932 459.572 203.977 459.56 204.037C459.537 204.157 459.5 204.334 459.445 204.561C459.335 205.016 459.154 205.669 458.871 206.46C458.305 208.041 457.331 210.169 455.697 212.349C452.436 216.703 446.535 221.289 435.955 222.143L435.995 222.642C446.723 221.775 452.753 217.113 456.098 212.649C457.767 210.42 458.763 208.246 459.342 206.628C459.632 205.819 459.817 205.148 459.931 204.679C459.987 204.444 460.026 204.259 460.051 204.132C460.063 204.069 460.072 204.02 460.078 203.987C460.081 203.97 460.083 203.957 460.084 203.948C460.085 203.944 460.085 203.94 460.086 203.938C460.086 203.937 460.086 203.936 460.086 203.935C460.086 203.935 460.086 203.934 460.086 203.934C460.086 203.934 460.086 203.934 459.839 203.896ZM478.697 191.196C472.989 188.47 464.041 186.216 453.05 184.416C442.053 182.614 428.99 181.263 415.036 180.352C387.128 178.53 355.645 178.467 329.984 180.084L330.016 180.583C355.654 178.968 387.116 179.03 415.003 180.851C428.947 181.761 441.993 183.111 452.969 184.909C463.952 186.708 472.84 188.954 478.482 191.647L478.697 191.196ZM329.984 180.084C329.649 180.105 329.204 180.103 328.748 180.102C328.298 180.1 327.836 180.098 327.483 180.122L327.517 180.621C327.848 180.599 328.29 180.6 328.746 180.602C329.196 180.603 329.66 180.605 330.016 180.583L329.984 180.084ZM556.999 202.621L556.928 203.116L558.617 203.357L557.326 202.242L556.999 202.621ZM230.482 182.116L230.258 181.669L230.685 182.573L230.482 182.116ZM557 313.586L556.562 313.826L557.488 313.476L557 313.586ZM478.59 191.421L478.66 190.926L478.375 191.873L478.59 191.421ZM285.12 187.12L284.941 186.653L284.935 186.655L285.12 187.12ZM252.733 244.761L252.26 244.6L251.643 246.417L253.068 245.132L252.733 244.761ZM427.452 313.586L426.96 313.498L426.952 313.541V313.586H427.452ZM427.452 314.016L427.943 314.114L427.952 314.065V314.016H427.452ZM278.728 429.298L278.749 428.798L278.747 428.798L278.728 429.298ZM133.839 214.65L133.34 214.63L133.34 214.632L133.839 214.65ZM220.346 71.8379L220.63 72.2499L220.669 72.2232L220.702 72.1898L220.346 71.8379ZM220.773 71.4077L220.417 71.0558L220.417 71.0559L220.773 71.4077ZM221.199 70.9776L220.904 70.5739L220.872 70.5974L220.844 70.6257L221.199 70.9776ZM262.535 49.4698L262.698 49.9423L262.707 49.9393L262.716 49.9359L262.535 49.4698ZM296.2 40.0064L296.292 40.498L296.303 40.4956L296.2 40.0064ZM443.22 36.5651L443.159 37.0614L443.406 36.1011L443.22 36.5651ZM256.569 0.431988L256.543 -0.0673657L256.423 -0.0612494L256.319 -0.00112628L256.569 0.431988ZM145.345 120.446L144.847 120.398L145.803 120.646L145.345 120.446ZM187.96 12.4764L188.348 12.7914L189.369 11.5329L187.816 11.9973L187.96 12.4764ZM101.878 52.911L101.614 52.4868L101.588 52.5029L101.564 52.522L101.878 52.911ZM95.9125 57.6427L95.6535 57.2151L95.4215 57.3555L95.4128 57.6265L95.9125 57.6427ZM99.3216 175.936L98.9278 176.244L99.9211 177.514L99.8207 175.905L99.3216 175.936ZM73.753 78.2902L74.2505 78.2398L74.1436 77.1855L73.3978 77.9383L73.753 78.2902ZM19.2066 159.59L18.7457 159.396L18.6847 159.541L18.7177 159.695L19.2066 159.59ZM63.0994 252.503L62.8741 252.95L63.4841 252.184L63.0994 252.503ZM6.84843 197.874L7.27535 197.613L6.63822 196.568L6.36139 197.761L6.84843 197.874ZM92.9295 485.218L92.5844 485.58L92.7627 485.75L93.0062 485.712L92.9295 485.218ZM191.369 452.956L191.85 453.092L192.242 451.707L191.076 452.551L191.369 452.956ZM122.76 508.876L122.552 508.422L121.69 508.815L122.501 509.304L122.76 508.876ZM383.986 544.579L383.815 544.109L383.807 544.112L383.799 544.115L383.986 544.579ZM489.243 241.319L489.088 240.844L488.491 241.039L488.815 241.577L489.243 241.319ZM327.5 180.371L327.534 180.87L327.532 179.872L327.5 180.371ZM557.326 202.242C489.764 143.935 407.964 138.814 343.112 148.242C310.682 152.957 282.474 161.312 262.373 168.488C252.322 172.076 244.297 175.369 238.783 177.767C236.026 178.966 233.896 179.94 232.455 180.616C231.735 180.953 231.186 181.216 230.818 181.395C230.633 181.484 230.494 181.553 230.4 181.599C230.354 181.622 230.318 181.639 230.294 181.651C230.283 181.657 230.274 181.662 230.268 181.665C230.265 181.666 230.262 181.667 230.261 181.668C230.259 181.669 230.258 181.669 230.482 182.116C230.705 182.564 230.706 182.563 230.707 182.563C230.709 182.562 230.711 182.561 230.713 182.56C230.719 182.557 230.728 182.553 230.739 182.547C230.762 182.536 230.796 182.519 230.842 182.496C230.934 182.451 231.071 182.383 231.254 182.295C231.619 182.118 232.163 181.857 232.88 181.521C234.313 180.849 236.434 179.879 239.182 178.684C244.678 176.294 252.682 173.009 262.709 169.429C282.765 162.27 310.908 153.935 343.256 149.232C407.958 139.825 489.417 144.956 556.672 202.999L557.326 202.242ZM557.488 313.476C546.815 265.857 527.17 235.238 510.175 216.518C501.678 207.16 493.847 200.778 488.134 196.733C485.277 194.711 482.951 193.272 481.335 192.339C480.527 191.872 479.897 191.531 479.468 191.306C479.253 191.193 479.089 191.11 478.977 191.054C478.921 191.027 478.879 191.006 478.85 190.992C478.835 190.985 478.824 190.979 478.817 190.976C478.813 190.974 478.81 190.972 478.808 190.971C478.807 190.971 478.806 190.97 478.805 190.97C478.804 190.97 478.804 190.97 478.59 191.421C478.375 191.873 478.375 191.873 478.375 191.873C478.376 191.873 478.376 191.873 478.377 191.874C478.378 191.874 478.38 191.875 478.383 191.877C478.39 191.88 478.399 191.885 478.412 191.891C478.438 191.904 478.478 191.923 478.531 191.949C478.637 192.002 478.795 192.083 479.004 192.192C479.422 192.41 480.039 192.745 480.835 193.204C482.425 194.124 484.726 195.546 487.556 197.549C493.216 201.556 500.992 207.891 509.434 217.19C526.318 235.787 545.878 266.25 556.512 313.695L557.488 313.476ZM284.935 186.655C269.635 192.746 262.733 203.531 259.024 214.653C257.174 220.203 256.116 225.841 255.204 231.01C254.288 236.198 253.523 240.882 252.26 244.6L253.207 244.921C254.501 241.112 255.28 236.333 256.189 231.183C257.101 226.015 258.148 220.442 259.973 214.969C263.615 204.046 270.349 193.538 285.305 187.584L284.935 186.655ZM253.068 245.132C286.726 214.79 332.283 219.98 368.467 238.806C386.55 248.214 402.246 261.008 412.885 274.41C423.537 287.828 429.054 301.77 426.96 313.498L427.945 313.673C430.113 301.528 424.39 287.294 413.668 273.788C402.932 260.264 387.121 247.384 368.929 237.919C332.562 218.998 286.498 213.649 252.399 244.389L253.068 245.132ZM426.952 313.586V314.016H427.952V313.586H426.952ZM426.962 313.918C413.374 382.071 352.226 431.799 278.749 428.798L278.708 429.797C352.676 432.818 414.258 382.75 427.943 314.114L426.962 313.918ZM278.747 428.798C238.404 427.298 201.046 409.835 174.402 374.742C147.75 339.641 131.785 286.856 134.339 214.667L133.34 214.632C130.78 286.976 146.775 340.01 173.605 375.347C200.441 410.692 238.085 428.286 278.71 429.797L278.747 428.798ZM134.339 214.669C136.462 160.661 171.296 106.164 220.63 72.2499L220.063 71.4259C170.531 105.477 135.478 160.239 133.34 214.63L134.339 214.669ZM220.702 72.1898L221.128 71.7596L220.417 71.0559L219.991 71.486L220.702 72.1898ZM221.128 71.7596L221.554 71.3295L220.844 70.6257L220.417 71.0558L221.128 71.7596ZM221.494 71.3812C233.81 62.3783 247.829 55.0884 262.698 49.9423L262.371 48.9973C247.411 54.1749 233.303 61.5103 220.904 70.5739L221.494 71.3812ZM262.716 49.9359C273.763 45.6469 284.813 42.6437 296.292 40.4978L296.108 39.5149C284.576 41.6706 273.466 44.6896 262.354 49.0037L262.716 49.9359ZM296.303 40.4956C355.453 28.0388 418.454 34.0517 443.159 37.0614L443.28 36.0688C418.553 33.0563 355.415 27.0248 296.097 39.5171L296.303 40.4956ZM443.406 36.1011C368.346 5.96669 307.335 -2.65243 256.543 -0.0673657L256.594 0.931342C307.224 -1.64547 368.091 6.94167 443.033 37.0291L443.406 36.1011ZM256.319 -0.00112628C220.472 20.6755 172.219 57.7381 144.887 120.245L145.803 120.646C173.018 58.4077 221.073 21.4834 256.819 0.865102L256.319 -0.00112628ZM145.345 120.446C145.843 120.493 145.843 120.493 145.843 120.492C145.843 120.492 145.843 120.491 145.843 120.49C145.843 120.489 145.844 120.486 145.844 120.482C145.845 120.475 145.846 120.464 145.847 120.449C145.85 120.419 145.855 120.375 145.861 120.315C145.873 120.196 145.892 120.019 145.918 119.785C145.97 119.317 146.052 118.623 146.169 117.723C146.403 115.924 146.778 113.301 147.343 110.011C148.472 103.432 150.36 94.1882 153.39 83.5351C159.453 62.2229 170.083 35.3019 188.348 12.7914L187.571 12.1613C169.188 34.8172 158.511 61.8808 152.428 83.2615C149.386 93.955 147.492 103.235 146.357 109.842C145.79 113.146 145.413 115.783 145.177 117.594C145.06 118.5 144.977 119.2 144.924 119.674C144.898 119.911 144.879 120.091 144.866 120.213C144.86 120.273 144.855 120.32 144.852 120.351C144.851 120.366 144.849 120.378 144.849 120.386C144.848 120.39 144.848 120.393 144.848 120.395C144.848 120.396 144.848 120.397 144.848 120.397C144.847 120.398 144.847 120.398 145.345 120.446ZM187.816 11.9973C153.238 22.3392 125.07 37.8503 101.614 52.4868L102.143 53.3352C125.563 38.7212 153.646 23.2611 188.103 12.9554L187.816 11.9973ZM101.564 52.522C99.3763 54.2889 97.7474 55.9469 95.6535 57.2151L96.1715 58.0704C98.339 56.7577 100.119 54.9744 102.193 53.3L101.564 52.522ZM95.4128 57.6265C94.5597 83.889 95.413 121.331 98.8226 175.967L99.8207 175.905C96.4119 121.281 95.5607 83.8755 96.4122 57.659L95.4128 57.6265ZM99.7155 175.628C98.9542 174.654 98.035 172.998 96.9996 170.738C95.9683 168.486 94.8347 165.665 93.639 162.383C91.2477 155.819 88.615 147.431 86.0607 138.111C80.9514 119.469 76.1644 97.13 74.2505 78.2398L73.2555 78.3406C75.1769 97.3042 79.9781 119.701 85.0963 138.375C87.6557 147.714 90.2965 156.129 92.6994 162.725C93.9007 166.023 95.0444 168.871 96.0905 171.154C97.1325 173.429 98.091 175.174 98.9278 176.244L99.7155 175.628ZM73.3978 77.9383C48.208 103.365 30.7012 130.95 18.7457 159.396L19.6675 159.783C31.576 131.449 49.013 103.974 74.1082 78.6421L73.3978 77.9383ZM18.7177 159.695C24.2681 185.553 36.2257 220.909 62.7147 252.823L63.4841 252.184C37.1313 220.435 25.2249 185.245 19.6955 159.485L18.7177 159.695ZM63.3247 252.057C59.9712 250.365 50.207 243.729 39.1392 234.007C28.0786 224.292 15.7615 211.533 7.27535 197.613L6.42151 198.134C14.9811 212.174 27.3803 225.01 38.4792 234.759C49.5709 244.502 59.4093 251.201 62.8741 252.95L63.3247 252.057ZM6.36139 197.761C-19.2528 308.077 30.6844 426.544 92.5844 485.58L93.2746 484.856C31.5929 426.029 -18.1876 307.911 7.33547 197.987L6.36139 197.761ZM93.0062 485.712C106.868 483.559 125.108 480.114 143.088 474.89C161.058 469.669 178.808 462.66 191.662 453.361L191.076 452.551C178.361 461.749 160.74 468.72 142.809 473.93C124.885 479.138 106.69 482.575 92.8527 484.724L93.0062 485.712ZM190.888 452.82C190.856 452.933 190.731 453.192 190.468 453.619C190.214 454.03 189.857 454.556 189.397 455.188C188.478 456.452 187.163 458.12 185.481 460.1C182.117 464.057 177.296 469.246 171.264 474.906C159.197 486.228 142.303 499.418 122.552 508.422L122.967 509.331C142.848 500.268 159.832 487.004 171.948 475.635C178.008 469.95 182.855 464.734 186.243 460.747C187.937 458.754 189.268 457.066 190.206 455.777C190.674 455.133 191.047 454.584 191.319 454.145C191.58 453.722 191.775 453.355 191.85 453.092L190.888 452.82ZM122.501 509.304C174.573 540.756 230.053 553.677 277.471 556.746C324.877 559.815 364.268 553.037 384.172 545.043L383.799 544.115C364.072 552.038 324.84 558.81 277.535 555.748C230.242 552.688 174.925 539.8 123.018 508.448L122.501 509.304ZM384.156 545.05C430.593 528.239 461.338 502.338 481.09 472.549C500.839 442.766 509.579 409.126 512.061 376.857C514.543 344.589 510.767 313.675 505.466 289.323C500.169 264.989 493.336 247.154 489.672 241.062L488.815 241.577C492.394 247.529 499.199 265.236 504.489 289.536C509.775 313.819 513.536 344.632 511.064 376.78C508.592 408.927 499.887 442.391 480.257 471.997C460.631 501.596 430.064 527.367 383.815 544.109L384.156 545.05ZM489.398 241.795C490.921 241.299 492.762 241.373 494.895 242.01C497.027 242.647 499.418 243.838 502.014 245.529C507.206 248.912 513.154 254.256 519.398 261.016C531.885 274.531 545.498 293.639 556.562 313.826L557.438 313.345C546.342 293.098 532.682 273.921 520.133 260.337C513.86 253.547 507.849 248.137 502.56 244.691C499.916 242.968 497.436 241.726 495.182 241.052C492.929 240.379 490.868 240.265 489.088 240.844L489.398 241.795ZM327.466 179.873C308.433 181.155 293.201 183.482 284.941 186.653L285.299 187.587C293.405 184.475 308.502 182.152 327.534 180.87L327.466 179.873ZM230.685 182.573C233.568 181.287 238.12 180.335 244.102 179.688C250.072 179.042 257.423 178.705 265.876 178.627C282.781 178.471 304.064 179.353 327.468 180.87L327.532 179.872C304.119 178.354 282.808 177.47 265.866 177.627C257.396 177.705 250.01 178.043 243.995 178.694C237.992 179.343 233.311 180.307 230.278 181.66L230.685 182.573ZM478.519 191.916L556.928 203.116L557.07 202.126L478.66 190.926L478.519 191.916Z" fill="url(#paint0_linear)" mask="url(#path-1-inside-1)"/>
</g>
<defs>
<linearGradient id="paint0_linear" x1="278.5" y1="0" x2="278.5" y2="557" gradientUnits="userSpaceOnUse">
<stop stop-color="#D1C57A"/>
<stop offset="1" stop-color="#D1C57A" stop-opacity="0"/>
</linearGradient>
</defs>
</svg>
