<svg width="557" height="557" viewBox="0 0 557 557" fill="none" xmlns="http://www.w3.org/2000/svg">
<g opacity="0.2">
<mask id="path-1-inside-1" fill="white">
<path d="M230.483 75.5303C263.627 60.748 505.044 91.2663 557 96.0348C422.183 -20.3163 230.483 75.5303 230.483 75.5303Z"/>
<path d="M557 313.586C535.693 218.521 478.589 191.421 478.589 191.421C447.055 176.366 315.376 175.506 285.12 187.12C254.864 199.164 257.847 229.705 252.733 244.761C320.49 183.678 435.975 265.838 427.452 313.586C427.452 313.586 427.452 313.586 427.452 314.016C413.816 382.411 352.451 432.309 278.728 429.298C197.761 426.286 128.726 359.182 133.839 214.65C135.97 160.45 170.914 105.82 220.346 71.8379L220.773 71.4077C220.773 71.4077 220.773 71.4077 221.199 70.9776C233.557 61.9443 247.62 54.6317 262.535 49.4698C273.614 45.1682 284.694 42.1571 296.2 40.0063C355.434 27.5318 418.503 33.554 443.22 36.5651C368.218 6.45417 307.28 -2.14895 256.569 0.431988C220.773 21.0795 172.618 58.0729 145.345 120.446C145.345 120.446 151.311 57.6427 187.959 12.4764C153.442 22.8001 125.316 38.2857 101.878 52.911C99.7478 54.6317 98.0432 56.3523 95.9125 57.6427C95.0602 83.8823 95.9125 121.306 99.3216 175.936C92.9295 167.763 77.5883 116.144 73.753 78.2902C48.6105 103.669 31.1386 131.199 19.2066 159.59C24.7465 185.399 36.6785 220.672 63.0994 252.503C56.2811 249.062 23.8942 225.834 6.84843 197.874C-18.7202 307.994 31.1386 426.286 92.9295 485.218C120.629 480.916 165.8 471.453 191.369 452.956C190.516 455.967 162.391 490.81 122.76 508.876C226.739 571.679 344.354 560.495 383.986 544.579C569.358 477.475 503.732 265.408 489.243 241.319C502.453 237.018 534.84 273.151 557 313.586ZM435.975 222.393C414.242 224.113 405.719 214.65 403.162 205.616C402.736 204.756 459.839 203.896 459.839 203.896C459.839 203.896 457.282 220.672 435.975 222.393Z"/>
</mask>
<path d="M230.483 75.5303L230.259 75.0831L230.687 75.9869L230.483 75.5303ZM557 96.0348L556.954 96.5327L558.507 96.6752L557.327 95.6562L557 96.0348ZM557 313.586L556.561 313.826L557.488 313.476L557 313.586ZM478.589 191.421L478.374 191.872L478.375 191.873L478.589 191.421ZM285.12 187.12L284.941 186.653L284.935 186.655L285.12 187.12ZM252.733 244.761L252.26 244.6L251.643 246.417L253.068 245.132L252.733 244.761ZM427.452 313.586H426.952L427.944 313.673L427.452 313.586ZM427.452 314.016L427.943 314.114L427.952 314.065V314.016H427.452ZM278.728 429.298L278.749 428.798L278.747 428.798L278.728 429.298ZM133.839 214.65L133.34 214.63L133.34 214.632L133.839 214.65ZM220.346 71.8379L220.63 72.2499L220.669 72.2232L220.702 72.1898L220.346 71.8379ZM220.773 71.4077L221.128 71.7596L221.553 71.3305L221.052 70.9931L220.773 71.4077ZM221.199 70.9776L220.904 70.5739L220.872 70.5974L220.843 70.6257L221.199 70.9776ZM262.535 49.4698L262.698 49.9423L262.707 49.9392L262.716 49.9359L262.535 49.4698ZM296.2 40.0063L296.292 40.498L296.303 40.4956L296.2 40.0063ZM443.22 36.5651L443.159 37.0614L443.406 36.1011L443.22 36.5651ZM256.569 0.431988L256.543 -0.0673657L256.423 -0.0612494L256.319 -0.00112622L256.569 0.431988ZM145.345 120.446L144.847 120.398L145.803 120.646L145.345 120.446ZM187.959 12.4764L188.348 12.7914L189.369 11.5329L187.816 11.9973L187.959 12.4764ZM101.878 52.911L101.614 52.4868L101.588 52.5029L101.564 52.522L101.878 52.911ZM95.9125 57.6427L95.6534 57.2151L95.4215 57.3555L95.4127 57.6265L95.9125 57.6427ZM99.3216 175.936L98.9278 176.244L99.9211 177.514L99.8206 175.905L99.3216 175.936ZM73.753 78.2902L74.2504 78.2398L74.1436 77.1855L73.3978 77.9383L73.753 78.2902ZM19.2066 159.59L18.7457 159.396L18.6847 159.541L18.7177 159.695L19.2066 159.59ZM63.0994 252.503L62.8741 252.95L63.4841 252.184L63.0994 252.503ZM6.84843 197.874L7.27535 197.613L6.63822 196.568L6.36138 197.761L6.84843 197.874ZM92.9295 485.218L92.5844 485.58L92.7627 485.75L93.0062 485.712L92.9295 485.218ZM191.369 452.956L191.85 453.092L192.242 451.707L191.076 452.551L191.369 452.956ZM122.76 508.876L122.552 508.421L121.69 508.815L122.501 509.304L122.76 508.876ZM383.986 544.579L383.815 544.109L383.807 544.112L383.799 544.115L383.986 544.579ZM489.243 241.319L489.088 240.844L488.491 241.039L488.815 241.577L489.243 241.319ZM435.975 222.393L436.015 222.891L436.015 222.891L435.975 222.393ZM403.162 205.616L403.643 205.48L403.631 205.436L403.61 205.395L403.162 205.616ZM459.839 203.896L460.333 203.971L460.422 203.387L459.832 203.396L459.839 203.896ZM230.687 75.9869C234.737 74.1805 242.049 73.0418 251.927 72.4708C261.781 71.9011 274.116 71.8988 288.162 72.327C316.253 73.1834 351.15 75.7603 386.642 78.949C422.134 82.1375 458.214 85.937 488.67 89.2375C519.121 92.5376 543.96 95.34 556.954 96.5327L557.046 95.5368C544.062 94.3452 519.24 91.5447 488.778 88.2434C458.32 84.9426 422.232 81.1423 386.732 77.953C351.233 74.7638 316.313 72.1848 288.193 71.3275C274.133 70.8988 261.765 70.9003 251.869 71.4724C241.997 72.0432 234.515 73.1845 230.279 75.0736L230.687 75.9869ZM557.327 95.6562C489.765 37.3485 407.965 32.2275 343.113 41.6561C310.684 46.3709 282.475 54.7257 262.374 61.9013C252.323 65.4894 244.298 68.7831 238.784 71.1806C236.027 72.3793 233.897 73.3541 232.456 74.0295C231.736 74.3673 231.188 74.6302 230.819 74.8089C230.634 74.8983 230.495 74.9666 230.401 75.0127C230.355 75.0357 230.319 75.0532 230.296 75.065C230.284 75.0709 230.275 75.0753 230.269 75.0783C230.266 75.0799 230.263 75.081 230.262 75.0818C230.26 75.0826 230.259 75.0831 230.483 75.5303C230.706 75.9775 230.707 75.9772 230.708 75.9766C230.71 75.9759 230.712 75.9749 230.715 75.9734C230.72 75.9707 230.729 75.9664 230.74 75.9608C230.763 75.9494 230.797 75.9324 230.843 75.9098C230.935 75.8646 231.073 75.7972 231.255 75.7088C231.62 75.5319 232.164 75.2709 232.881 74.935C234.314 74.2633 236.435 73.2924 239.183 72.0976C244.679 69.708 252.683 66.4227 262.711 62.8431C282.767 55.6835 310.909 47.3486 343.257 42.6457C407.959 33.2388 489.418 38.37 556.673 96.4133L557.327 95.6562ZM557.488 313.476C546.815 265.857 527.17 235.238 510.175 216.518C501.678 207.16 493.847 200.778 488.134 196.733C485.277 194.711 482.95 193.272 481.335 192.339C480.527 191.872 479.897 191.531 479.468 191.306C479.253 191.193 479.089 191.11 478.977 191.054C478.921 191.027 478.879 191.006 478.85 190.992C478.835 190.985 478.824 190.979 478.816 190.976C478.813 190.974 478.81 190.972 478.808 190.971C478.806 190.971 478.806 190.97 478.805 190.97C478.804 190.97 478.804 190.97 478.589 191.421C478.375 191.873 478.375 191.873 478.375 191.873C478.376 191.873 478.376 191.873 478.377 191.874C478.378 191.874 478.38 191.875 478.383 191.877C478.39 191.88 478.399 191.885 478.412 191.891C478.438 191.904 478.478 191.923 478.531 191.949C478.637 192.002 478.795 192.083 479.004 192.192C479.422 192.41 480.039 192.745 480.835 193.204C482.425 194.124 484.726 195.545 487.556 197.549C493.216 201.556 500.992 207.891 509.434 217.19C526.317 235.787 545.878 266.25 556.512 313.695L557.488 313.476ZM478.805 190.97C470.839 187.167 456.621 184.284 439.369 182.268C422.096 180.249 401.717 179.092 381.383 178.769C361.049 178.447 340.752 178.958 323.641 180.276C306.551 181.594 292.581 183.72 284.941 186.653L285.299 187.587C292.788 184.712 306.624 182.591 323.718 181.273C340.792 179.958 361.058 179.447 381.367 179.769C401.677 180.092 422.022 181.247 439.253 183.261C456.506 185.277 470.573 188.148 478.374 191.872L478.805 190.97ZM284.935 186.655C269.635 192.746 262.733 203.531 259.024 214.653C257.173 220.203 256.116 225.841 255.204 231.01C254.288 236.198 253.523 240.882 252.26 244.6L253.207 244.921C254.501 241.112 255.28 236.333 256.189 231.183C257.101 226.015 258.148 220.442 259.973 214.969C263.615 204.046 270.349 193.538 285.305 187.584L284.935 186.655ZM253.068 245.132C286.726 214.79 332.283 219.98 368.467 238.806C386.55 248.214 402.246 261.008 412.885 274.409C423.537 287.828 429.053 301.77 426.96 313.498L427.944 313.673C430.112 301.528 424.39 287.294 413.668 273.788C402.932 260.264 387.121 247.384 368.928 237.919C332.561 218.998 286.498 213.649 252.399 244.389L253.068 245.132ZM427.452 313.586C427.952 313.586 427.452 313.586 426.952 313.586V313.586C426.952 313.586 426.952 313.586 426.952 313.586C426.952 313.586 426.952 313.586 426.952 313.586V313.586V313.586C426.952 313.586 426.952 313.586 426.952 313.586C426.952 313.586 426.952 313.586 426.952 313.586C426.952 313.586 426.952 313.586 426.952 313.586C426.952 313.586 426.952 313.586 426.952 313.586V313.586C426.952 313.586 426.952 313.586 426.952 313.586V313.586C426.952 313.586 426.952 313.586 426.952 313.586C426.952 313.586 426.952 313.586 426.952 313.586V313.586V313.586C426.952 313.586 426.952 313.586 426.952 313.586C426.952 313.586 426.952 313.586 426.952 313.586C426.952 313.586 426.952 313.586 426.952 313.586C426.952 313.586 426.952 313.586 426.952 313.586C426.952 313.586 426.952 313.586 426.952 313.586C426.952 313.586 426.952 313.586 426.952 313.586V313.586V313.586V313.586C426.952 313.586 426.952 313.586 426.952 313.586C426.952 313.586 426.952 313.586 426.952 313.586V313.586C426.952 313.587 426.952 313.587 426.952 313.587C426.952 313.587 426.952 313.587 426.952 313.587V313.587C426.952 313.587 426.952 313.587 426.952 313.587V313.587C426.952 313.587 426.952 313.587 426.952 313.587V313.587C426.952 313.587 426.952 313.587 426.952 313.587C426.952 313.587 426.952 313.587 426.952 313.587C426.952 313.587 426.952 313.587 426.952 313.587V313.587C426.952 313.587 426.952 313.587 426.952 313.587C426.952 313.587 426.952 313.587 426.952 313.587C426.952 313.587 426.952 313.587 426.952 313.587C426.952 313.587 426.952 313.587 426.952 313.587C426.952 313.587 426.952 313.587 426.952 313.587C426.952 313.587 426.952 313.587 426.952 313.587C426.952 313.587 426.952 313.587 426.952 313.587C426.952 313.587 426.952 313.587 426.952 313.587C426.952 313.588 426.952 313.588 426.952 313.588C426.952 313.588 426.952 313.588 426.952 313.588C426.952 313.588 426.952 313.588 426.952 313.588C426.952 313.588 426.952 313.588 426.952 313.588C426.952 313.588 426.952 313.588 426.952 313.588C426.952 313.588 426.952 313.588 426.952 313.588C426.952 313.588 426.952 313.588 426.952 313.588C426.952 313.588 426.952 313.588 426.952 313.588C426.952 313.588 426.952 313.588 426.952 313.588C426.952 313.588 426.952 313.588 426.952 313.588C426.952 313.588 426.952 313.588 426.952 313.588C426.952 313.588 426.952 313.588 426.952 313.588C426.952 313.588 426.952 313.589 426.952 313.589C426.952 313.589 426.952 313.589 426.952 313.589C426.952 313.589 426.952 313.589 426.952 313.589C426.952 313.589 426.952 313.589 426.952 313.589C426.952 313.589 426.952 313.589 426.952 313.589C426.952 313.589 426.952 313.589 426.952 313.589C426.952 313.589 426.952 313.589 426.952 313.589C426.952 313.589 426.952 313.589 426.952 313.589C426.952 313.589 426.952 313.589 426.952 313.589C426.952 313.589 426.952 313.589 426.952 313.589C426.952 313.589 426.952 313.59 426.952 313.59C426.952 313.59 426.952 313.59 426.952 313.59C426.952 313.59 426.952 313.59 426.952 313.59C426.952 313.59 426.952 313.59 426.952 313.59C426.952 313.59 426.952 313.59 426.952 313.59C426.952 313.59 426.952 313.59 426.952 313.59C426.952 313.59 426.952 313.59 426.952 313.59C426.952 313.59 426.952 313.59 426.952 313.59C426.952 313.59 426.952 313.59 426.952 313.59C426.952 313.591 426.952 313.591 426.952 313.591C426.952 313.591 426.952 313.591 426.952 313.591C426.952 313.591 426.952 313.591 426.952 313.591C426.952 313.591 426.952 313.591 426.952 313.591C426.952 313.591 426.952 313.591 426.952 313.591C426.952 313.591 426.952 313.591 426.952 313.591C426.952 313.591 426.952 313.591 426.952 313.591C426.952 313.591 426.952 313.592 426.952 313.592C426.952 313.592 426.952 313.592 426.952 313.592C426.952 313.592 426.952 313.592 426.952 313.592C426.952 313.592 426.952 313.592 426.952 313.592C426.952 313.592 426.952 313.592 426.952 313.592C426.952 313.592 426.952 313.592 426.952 313.592C426.952 313.592 426.952 313.592 426.952 313.592C426.952 313.593 426.952 313.593 426.952 313.593C426.952 313.593 426.952 313.593 426.952 313.593C426.952 313.593 426.952 313.593 426.952 313.593C426.952 313.593 426.952 313.593 426.952 313.593C426.952 313.593 426.952 313.593 426.952 313.593C426.952 313.593 426.952 313.593 426.952 313.594C426.952 313.594 426.952 313.594 426.952 313.594C426.952 313.594 426.952 313.594 426.952 313.594C426.952 313.594 426.952 313.594 426.952 313.594C426.952 313.594 426.952 313.594 426.952 313.594C426.952 313.594 426.952 313.594 426.952 313.594C426.952 313.594 426.952 313.595 426.952 313.595C426.952 313.595 426.952 313.595 426.952 313.595C426.952 313.595 426.952 313.595 426.952 313.595C426.952 313.595 426.952 313.595 426.952 313.595C426.952 313.595 426.952 313.595 426.952 313.595C426.952 313.595 426.952 313.596 426.952 313.596C426.952 313.596 426.952 313.596 426.952 313.596C426.952 313.596 426.952 313.596 426.952 313.596C426.952 313.596 426.952 313.596 426.952 313.596C426.952 313.596 426.952 313.596 426.952 313.596C426.952 313.596 426.952 313.597 426.952 313.597C426.952 313.597 426.952 313.597 426.952 313.597C426.952 313.597 426.952 313.597 426.952 313.597C426.952 313.597 426.952 313.597 426.952 313.597C426.952 313.597 426.952 313.597 426.952 313.598C426.952 313.598 426.952 313.598 426.952 313.598C426.952 313.598 426.952 313.598 426.952 313.598C426.952 313.598 426.952 313.598 426.952 313.598C426.952 313.598 426.952 313.598 426.952 313.598C426.952 313.599 426.952 313.599 426.952 313.599C426.952 313.599 426.952 313.599 426.952 313.599C426.952 313.599 426.952 313.599 426.952 313.599C426.952 313.599 426.952 313.599 426.952 313.599C426.952 313.6 426.952 313.6 426.952 313.6C426.952 313.6 426.952 313.6 426.952 313.6C426.952 313.6 426.952 313.6 426.952 313.6C426.952 313.6 426.952 313.6 426.952 313.601C426.952 313.601 426.952 313.601 426.952 313.601C426.952 313.601 426.952 313.601 426.952 313.601C426.952 313.601 426.952 313.601 426.952 313.601C426.952 313.601 426.952 313.602 426.952 313.602C426.952 313.602 426.952 313.602 426.952 313.602C426.952 313.602 426.952 313.602 426.952 313.602C426.952 313.602 426.952 313.602 426.952 313.602C426.952 313.603 426.952 313.603 426.952 313.603C426.952 313.603 426.952 313.603 426.952 313.603C426.952 313.603 426.952 313.603 426.952 313.603C426.952 313.603 426.952 313.604 426.952 313.604C426.952 313.604 426.952 313.604 426.952 313.604C426.952 313.604 426.952 313.604 426.952 313.604C426.952 313.604 426.952 313.605 426.952 313.605C426.952 313.605 426.952 313.605 426.952 313.605C426.952 313.605 426.952 313.605 426.952 313.605C426.952 313.605 426.952 313.605 426.952 313.606C426.952 313.606 426.952 313.606 426.952 313.606C426.952 313.606 426.952 313.606 426.952 313.606C426.952 313.606 426.952 313.606 426.952 313.607C426.952 313.607 426.952 313.607 426.952 313.607C426.952 313.607 426.952 313.607 426.952 313.607C426.952 313.607 426.952 313.607 426.952 313.608C426.952 313.608 426.952 313.608 426.952 313.608C426.952 313.608 426.952 313.608 426.952 313.608C426.952 313.608 426.952 313.609 426.952 313.609C426.952 313.609 426.952 313.609 426.952 313.609C426.952 313.609 426.952 313.609 426.952 313.609C426.952 313.609 426.952 313.61 426.952 313.61C426.952 313.61 426.952 313.61 426.952 313.61C426.952 313.61 426.952 313.61 426.952 313.61C426.952 313.611 426.952 313.611 426.952 313.611C426.952 313.611 426.952 313.611 426.952 313.611C426.952 313.611 426.952 313.612 426.952 313.612C426.952 313.612 426.952 313.612 426.952 313.612C426.952 313.612 426.952 313.612 426.952 313.612C426.952 313.613 426.952 313.613 426.952 313.613C426.952 313.613 426.952 313.613 426.952 313.613C426.952 313.613 426.952 313.613 426.952 313.614C426.952 313.614 426.952 313.614 426.952 313.614C426.952 313.614 426.952 313.614 426.952 313.614C426.952 313.615 426.952 313.615 426.952 313.615C426.952 313.615 426.952 313.615 426.952 313.615C426.952 313.615 426.952 313.616 426.952 313.616C426.952 313.616 426.952 313.616 426.952 313.616C426.952 313.616 426.952 313.616 426.952 313.617C426.952 313.617 426.952 313.617 426.952 313.617C426.952 313.617 426.952 313.617 426.952 313.617C426.952 313.618 426.952 313.618 426.952 313.618C426.952 313.618 426.952 313.618 426.952 313.618C426.952 313.618 426.952 313.619 426.952 313.619C426.952 313.619 426.952 313.619 426.952 313.619C426.952 313.619 426.952 313.62 426.952 313.62C426.952 313.62 426.952 313.62 426.952 313.62C426.952 313.62 426.952 313.621 426.952 313.621C426.952 313.621 426.952 313.621 426.952 313.621C426.952 313.621 426.952 313.621 426.952 313.622C426.952 313.622 426.952 313.622 426.952 313.622C426.952 313.622 426.952 313.622 426.952 313.623C426.952 313.623 426.952 313.623 426.952 313.623C426.952 313.623 426.952 313.623 426.952 313.624C426.952 313.624 426.952 313.624 426.952 313.624C426.952 313.624 426.952 313.624 426.952 313.625C426.952 313.625 426.952 313.625 426.952 313.625C426.952 313.625 426.952 313.625 426.952 313.626C426.952 313.626 426.952 313.626 426.952 313.626C426.952 313.626 426.952 313.626 426.952 313.627C426.952 313.627 426.952 313.627 426.952 313.627C426.952 313.627 426.952 313.628 426.952 313.628C426.952 313.628 426.952 313.628 426.952 313.628C426.952 313.628 426.952 313.629 426.952 313.629C426.952 313.629 426.952 313.629 426.952 313.629C426.952 313.63 426.952 313.63 426.952 313.63C426.952 313.63 426.952 313.63 426.952 313.63C426.952 313.631 426.952 313.631 426.952 313.631C426.952 313.631 426.952 313.631 426.952 313.632C426.952 313.632 426.952 313.632 426.952 313.632C426.952 313.632 426.952 313.633 426.952 313.633C426.952 313.633 426.952 313.633 426.952 313.633C426.952 313.634 426.952 313.634 426.952 313.634C426.952 313.634 426.952 313.634 426.952 313.634C426.952 313.635 426.952 313.635 426.952 313.635C426.952 313.635 426.952 313.635 426.952 313.636C426.952 313.636 426.952 313.636 426.952 313.636C426.952 313.637 426.952 313.637 426.952 313.637C426.952 313.637 426.952 313.637 426.952 313.638C426.952 313.638 426.952 313.638 426.952 313.638C426.952 313.638 426.952 313.639 426.952 313.639C426.952 313.639 426.952 313.639 426.952 313.639C426.952 313.64 426.952 313.64 426.952 313.64C426.952 313.64 426.952 313.64 426.952 313.641C426.952 313.641 426.952 313.641 426.952 313.641C426.952 313.642 426.952 313.642 426.952 313.642C426.952 313.642 426.952 313.642 426.952 313.643C426.952 313.643 426.952 313.643 426.952 313.643C426.952 313.643 426.952 313.644 426.952 313.644C426.952 313.644 426.952 313.644 426.952 313.645C426.952 313.645 426.952 313.645 426.952 313.645C426.952 313.645 426.952 313.646 426.952 313.646C426.952 313.646 426.952 313.646 426.952 313.647C426.952 313.647 426.952 313.647 426.952 313.647C426.952 313.648 426.952 313.648 426.952 313.648C426.952 313.648 426.952 313.648 426.952 313.649C426.952 313.649 426.952 313.649 426.952 313.649C426.952 313.65 426.952 313.65 426.952 313.65C426.952 313.65 426.952 313.651 426.952 313.651C426.952 313.651 426.952 313.651 426.952 313.652C426.952 313.652 426.952 313.652 426.952 313.652C426.952 313.652 426.952 313.653 426.952 313.653C426.952 313.653 426.952 313.653 426.952 313.654C426.952 313.654 426.952 313.654 426.952 313.654C426.952 313.655 426.952 313.655 426.952 313.655C426.952 313.655 426.952 313.656 426.952 313.656C426.952 313.656 426.952 313.656 426.952 313.657C426.952 313.657 426.952 313.657 426.952 313.657C426.952 313.658 426.952 313.658 426.952 313.658C426.952 313.659 426.952 313.659 426.952 313.659C426.952 313.659 426.952 313.66 426.952 313.66C426.952 313.66 426.952 313.66 426.952 313.661C426.952 313.661 426.952 313.661 426.952 313.661C426.952 313.662 426.952 313.662 426.952 313.662C426.952 313.662 426.952 313.663 426.952 313.663C426.952 313.663 426.952 313.664 426.952 313.664C426.952 313.664 426.952 313.664 426.952 313.665C426.952 313.665 426.952 313.665 426.952 313.665C426.952 313.666 426.952 313.666 426.952 313.666C426.952 313.667 426.952 313.667 426.952 313.667C426.952 313.667 426.952 313.668 426.952 313.668C426.952 313.668 426.952 313.668 426.952 313.669C426.952 313.669 426.952 313.669 426.952 313.67C426.952 313.67 426.952 313.67 426.952 313.67C426.952 313.671 426.952 313.671 426.952 313.671C426.952 313.672 426.952 313.672 426.952 313.672C426.952 313.672 426.952 313.673 426.952 313.673C426.952 313.673 426.952 313.674 426.952 313.674C426.952 313.674 426.952 313.674 426.952 313.675C426.952 313.675 426.952 313.675 426.952 313.676C426.952 313.676 426.952 313.676 426.952 313.677C426.952 313.677 426.952 313.677 426.952 313.677C426.952 313.678 426.952 313.678 426.952 313.678C426.952 313.679 426.952 313.679 426.952 313.679C426.952 313.68 426.952 313.68 426.952 313.68C426.952 313.68 426.952 313.681 426.952 313.681C426.952 313.681 426.952 313.682 426.952 313.682C426.952 313.682 426.952 313.683 426.952 313.683C426.952 313.683 426.952 313.684 426.952 313.684C426.952 313.684 426.952 313.685 426.952 313.685C426.952 313.685 426.952 313.685 426.952 313.686C426.952 313.686 426.952 313.686 426.952 313.687C426.952 313.687 426.952 313.687 426.952 313.688C426.952 313.688 426.952 313.688 426.952 313.689C426.952 313.689 426.952 313.689 426.952 313.69C426.952 313.69 426.952 313.69 426.952 313.691C426.952 313.691 426.952 313.691 426.952 313.692C426.952 313.692 426.952 313.692 426.952 313.693C426.952 313.693 426.952 313.693 426.952 313.694C426.952 313.694 426.952 313.694 426.952 313.695C426.952 313.695 426.952 313.695 426.952 313.696C426.952 313.696 426.952 313.696 426.952 313.697C426.952 313.697 426.952 313.697 426.952 313.698C426.952 313.698 426.952 313.698 426.952 313.699C426.952 313.699 426.952 313.699 426.952 313.7C426.952 313.7 426.952 313.7 426.952 313.701C426.952 313.701 426.952 313.701 426.952 313.702C426.952 313.702 426.952 313.703 426.952 313.703C426.952 313.703 426.952 313.704 426.952 313.704C426.952 313.704 426.952 313.705 426.952 313.705C426.952 313.705 426.952 313.706 426.952 313.706C426.952 313.706 426.952 313.707 426.952 313.707C426.952 313.708 426.952 313.708 426.952 313.708C426.952 313.709 426.952 313.709 426.952 313.709C426.952 313.71 426.952 313.71 426.952 313.71C426.952 313.711 426.952 313.711 426.952 313.712C426.952 313.712 426.952 313.712 426.952 313.713C426.952 313.713 426.952 313.713 426.952 313.714C426.952 313.714 426.952 313.715 426.952 313.715C426.952 313.715 426.952 313.716 426.952 313.716C426.952 313.716 426.952 313.717 426.952 313.717C426.952 313.718 426.952 313.718 426.952 313.718C426.952 313.719 426.952 313.719 426.952 313.72C426.952 313.72 426.952 313.72 426.952 313.721C426.952 313.721 426.952 313.721 426.952 313.722C426.952 313.722 426.952 313.723 426.952 313.723C426.952 313.723 426.952 313.724 426.952 313.724C426.952 313.725 426.952 313.725 426.952 313.725C426.952 313.726 426.952 313.726 426.952 313.727C426.952 313.727 426.952 313.727 426.952 313.728C426.952 313.728 426.952 313.729 426.952 313.729C426.952 313.729 426.952 313.73 426.952 313.73C426.952 313.731 426.952 313.731 426.952 313.731C426.952 313.732 426.952 313.732 426.952 313.733C426.952 313.733 426.952 313.733 426.952 313.734C426.952 313.734 426.952 313.735 426.952 313.735C426.952 313.736 426.952 313.736 426.952 313.736C426.952 313.737 426.952 313.737 426.952 313.738C426.952 313.738 426.952 313.738 426.952 313.739C426.952 313.739 426.952 313.74 426.952 313.74C426.952 313.741 426.952 313.741 426.952 313.741C426.952 313.742 426.952 313.742 426.952 313.743C426.952 313.743 426.952 313.744 426.952 313.744C426.952 313.744 426.952 313.745 426.952 313.745C426.952 313.746 426.952 313.746 426.952 313.747C426.952 313.747 426.952 313.747 426.952 313.748C426.952 313.748 426.952 313.749 426.952 313.749C426.952 313.75 426.952 313.75 426.952 313.751C426.952 313.751 426.952 313.751 426.952 313.752C426.952 313.752 426.952 313.753 426.952 313.753C426.952 313.754 426.952 313.754 426.952 313.755C426.952 313.755 426.952 313.756 426.952 313.756C426.952 313.756 426.952 313.757 426.952 313.757C426.952 313.758 426.952 313.758 426.952 313.759C426.952 313.759 426.952 313.76 426.952 313.76C426.952 313.761 426.952 313.761 426.952 313.761C426.952 313.762 426.952 313.762 426.952 313.763C426.952 313.763 426.952 313.764 426.952 313.764C426.952 313.765 426.952 313.765 426.952 313.766C426.952 313.766 426.952 313.767 426.952 313.767C426.952 313.768 426.952 313.768 426.952 313.768C426.952 313.769 426.952 313.769 426.952 313.77C426.952 313.77 426.952 313.771 426.952 313.771C426.952 313.772 426.952 313.772 426.952 313.773C426.952 313.773 426.952 313.774 426.952 313.774C426.952 313.775 426.952 313.775 426.952 313.776C426.952 313.776 426.952 313.777 426.952 313.777C426.952 313.778 426.952 313.778 426.952 313.779C426.952 313.779 426.952 313.78 426.952 313.78C426.952 313.781 426.952 313.781 426.952 313.782C426.952 313.782 426.952 313.783 426.952 313.783C426.952 313.784 426.952 313.784 426.952 313.785C426.952 313.785 426.952 313.786 426.952 313.786C426.952 313.787 426.952 313.787 426.952 313.788C426.952 313.788 426.952 313.789 426.952 313.789C426.952 313.79 426.952 313.79 426.952 313.791C426.952 313.791 426.952 313.792 426.952 313.792C426.952 313.793 426.952 313.793 426.952 313.794C426.952 313.794 426.952 313.795 426.952 313.795C426.952 313.796 426.952 313.796 426.952 313.797C426.952 313.797 426.952 313.798 426.952 313.799C426.952 313.799 426.952 313.8 426.952 313.8C426.952 313.801 426.952 313.801 426.952 313.802C426.952 313.802 426.952 313.803 426.952 313.803C426.952 313.804 426.952 313.804 426.952 313.805C426.952 313.805 426.952 313.806 426.952 313.806C426.952 313.807 426.952 313.808 426.952 313.808C426.952 313.809 426.952 313.809 426.952 313.81C426.952 313.81 426.952 313.811 426.952 313.811C426.952 313.812 426.952 313.812 426.952 313.813C426.952 313.814 426.952 313.814 426.952 313.815C426.952 313.815 426.952 313.816 426.952 313.816C426.952 313.817 426.952 313.817 426.952 313.818C426.952 313.819 426.952 313.819 426.952 313.82C426.952 313.82 426.952 313.821 426.952 313.821C426.952 313.822 426.952 313.822 426.952 313.823C426.952 313.824 426.952 313.824 426.952 313.825C426.952 313.825 426.952 313.826 426.952 313.826C426.952 313.827 426.952 313.828 426.952 313.828C426.952 313.829 426.952 313.829 426.952 313.83C426.952 313.83 426.952 313.831 426.952 313.832C426.952 313.832 426.952 313.833 426.952 313.833C426.952 313.834 426.952 313.835 426.952 313.835C426.952 313.836 426.952 313.836 426.952 313.837C426.952 313.837 426.952 313.838 426.952 313.839C426.952 313.839 426.952 313.84 426.952 313.84C426.952 313.841 426.952 313.842 426.952 313.842C426.952 313.843 426.952 313.843 426.952 313.844C426.952 313.845 426.952 313.845 426.952 313.846C426.952 313.846 426.952 313.847 426.952 313.848C426.952 313.848 426.952 313.849 426.952 313.849C426.952 313.85 426.952 313.851 426.952 313.851C426.952 313.852 426.952 313.852 426.952 313.853C426.952 313.854 426.952 313.854 426.952 313.855C426.952 313.856 426.952 313.856 426.952 313.857C426.952 313.857 426.952 313.858 426.952 313.859C426.952 313.859 426.952 313.86 426.952 313.86C426.952 313.861 426.952 313.862 426.952 313.862C426.952 313.863 426.952 313.864 426.952 313.864C426.952 313.865 426.952 313.866 426.952 313.866C426.952 313.867 426.952 313.867 426.952 313.868C426.952 313.869 426.952 313.869 426.952 313.87C426.952 313.871 426.952 313.871 426.952 313.872C426.952 313.872 426.952 313.873 426.952 313.874C426.952 313.874 426.952 313.875 426.952 313.876C426.952 313.876 426.952 313.877 426.952 313.878C426.952 313.878 426.952 313.879 426.952 313.88C426.952 313.88 426.952 313.881 426.952 313.882C426.952 313.882 426.952 313.883 426.952 313.884C426.952 313.884 426.952 313.885 426.952 313.885C426.952 313.886 426.952 313.887 426.952 313.888C426.952 313.888 426.952 313.889 426.952 313.889C426.952 313.89 426.952 313.891 426.952 313.892C426.952 313.892 426.952 313.893 426.952 313.894C426.952 313.894 426.952 313.895 426.952 313.896C426.952 313.896 426.952 313.897 426.952 313.898C426.952 313.898 426.952 313.899 426.952 313.9C426.952 313.9 426.952 313.901 426.952 313.902C426.952 313.902 426.952 313.903 426.952 313.904C426.952 313.904 426.952 313.905 426.952 313.906C426.952 313.906 426.952 313.907 426.952 313.908C426.952 313.909 426.952 313.909 426.952 313.91C426.952 313.911 426.952 313.911 426.952 313.912C426.952 313.913 426.952 313.913 426.952 313.914C426.952 313.915 426.952 313.916 426.952 313.916C426.952 313.917 426.952 313.918 426.952 313.918C426.952 313.919 426.952 313.92 426.952 313.92C426.952 313.921 426.952 313.922 426.952 313.923C426.952 313.923 426.952 313.924 426.952 313.925C426.952 313.925 426.952 313.926 426.952 313.927C426.952 313.928 426.952 313.928 426.952 313.929C426.952 313.93 426.952 313.931 426.952 313.931C426.952 313.932 426.952 313.933 426.952 313.933C426.952 313.934 426.952 313.935 426.952 313.936C426.952 313.936 426.952 313.937 426.952 313.938C426.952 313.939 426.952 313.939 426.952 313.94C426.952 313.941 426.952 313.942 426.952 313.942C426.952 313.943 426.952 313.944 426.952 313.944C426.952 313.945 426.952 313.946 426.952 313.947C426.952 313.947 426.952 313.948 426.952 313.949C426.952 313.95 426.952 313.95 426.952 313.951C426.952 313.952 426.952 313.953 426.952 313.953C426.952 313.954 426.952 313.955 426.952 313.956C426.952 313.957 426.952 313.957 426.952 313.958C426.952 313.959 426.952 313.96 426.952 313.96C426.952 313.961 426.952 313.962 426.952 313.963C426.952 313.963 426.952 313.964 426.952 313.965C426.952 313.966 426.952 313.967 426.952 313.967C426.952 313.968 426.952 313.969 426.952 313.97C426.952 313.97 426.952 313.971 426.952 313.972C426.952 313.973 426.952 313.974 426.952 313.974C426.952 313.975 426.952 313.976 426.952 313.977C426.952 313.977 426.952 313.978 426.952 313.979C426.952 313.98 426.952 313.981 426.952 313.981C426.952 313.982 426.952 313.983 426.952 313.984C426.952 313.985 426.952 313.985 426.952 313.986C426.952 313.987 426.952 313.988 426.952 313.989C426.952 313.989 426.952 313.99 426.952 313.991C426.952 313.992 426.952 313.993 426.952 313.993C426.952 313.994 426.952 313.995 426.952 313.996C426.952 313.997 426.952 313.998 426.952 313.998C426.952 313.999 426.952 314 426.952 314.001C426.952 314.002 426.952 314.002 426.952 314.003C426.952 314.004 426.952 314.005 426.952 314.006C426.952 314.007 426.952 314.007 426.952 314.008C426.952 314.009 426.952 314.01 426.952 314.011C426.952 314.012 426.952 314.012 426.952 314.013C426.952 314.014 426.952 314.015 426.952 314.016H427.952C427.952 314.015 427.952 314.014 427.952 314.013C427.952 314.012 427.952 314.012 427.952 314.011C427.952 314.01 427.952 314.009 427.952 314.008C427.952 314.007 427.952 314.007 427.952 314.006C427.952 314.005 427.952 314.004 427.952 314.003C427.952 314.002 427.952 314.002 427.952 314.001C427.952 314 427.952 313.999 427.952 313.998C427.952 313.998 427.952 313.997 427.952 313.996C427.952 313.995 427.952 313.994 427.952 313.993C427.952 313.993 427.952 313.992 427.952 313.991C427.952 313.99 427.952 313.989 427.952 313.989C427.952 313.988 427.952 313.987 427.952 313.986C427.952 313.985 427.952 313.985 427.952 313.984C427.952 313.983 427.952 313.982 427.952 313.981C427.952 313.981 427.952 313.98 427.952 313.979C427.952 313.978 427.952 313.977 427.952 313.977C427.952 313.976 427.952 313.975 427.952 313.974C427.952 313.974 427.952 313.973 427.952 313.972C427.952 313.971 427.952 313.97 427.952 313.97C427.952 313.969 427.952 313.968 427.952 313.967C427.952 313.967 427.952 313.966 427.952 313.965C427.952 313.964 427.952 313.963 427.952 313.963C427.952 313.962 427.952 313.961 427.952 313.96C427.952 313.96 427.952 313.959 427.952 313.958C427.952 313.957 427.952 313.957 427.952 313.956C427.952 313.955 427.952 313.954 427.952 313.953C427.952 313.953 427.952 313.952 427.952 313.951C427.952 313.95 427.952 313.95 427.952 313.949C427.952 313.948 427.952 313.947 427.952 313.947C427.952 313.946 427.952 313.945 427.952 313.944C427.952 313.944 427.952 313.943 427.952 313.942C427.952 313.942 427.952 313.941 427.952 313.94C427.952 313.939 427.952 313.939 427.952 313.938C427.952 313.937 427.952 313.936 427.952 313.936C427.952 313.935 427.952 313.934 427.952 313.933C427.952 313.933 427.952 313.932 427.952 313.931C427.952 313.931 427.952 313.93 427.952 313.929C427.952 313.928 427.952 313.928 427.952 313.927C427.952 313.926 427.952 313.925 427.952 313.925C427.952 313.924 427.952 313.923 427.952 313.923C427.952 313.922 427.952 313.921 427.952 313.92C427.952 313.92 427.952 313.919 427.952 313.918C427.952 313.918 427.952 313.917 427.952 313.916C427.952 313.916 427.952 313.915 427.952 313.914C427.952 313.913 427.952 313.913 427.952 313.912C427.952 313.911 427.952 313.911 427.952 313.91C427.952 313.909 427.952 313.909 427.952 313.908C427.952 313.907 427.952 313.906 427.952 313.906C427.952 313.905 427.952 313.904 427.952 313.904C427.952 313.903 427.952 313.902 427.952 313.902C427.952 313.901 427.952 313.9 427.952 313.9C427.952 313.899 427.952 313.898 427.952 313.898C427.952 313.897 427.952 313.896 427.952 313.896C427.952 313.895 427.952 313.894 427.952 313.894C427.952 313.893 427.952 313.892 427.952 313.892C427.952 313.891 427.952 313.89 427.952 313.889C427.952 313.889 427.952 313.888 427.952 313.888C427.952 313.887 427.952 313.886 427.952 313.885C427.952 313.885 427.952 313.884 427.952 313.884C427.952 313.883 427.952 313.882 427.952 313.882C427.952 313.881 427.952 313.88 427.952 313.88C427.952 313.879 427.952 313.878 427.952 313.878C427.952 313.877 427.952 313.876 427.952 313.876C427.952 313.875 427.952 313.874 427.952 313.874C427.952 313.873 427.952 313.872 427.952 313.872C427.952 313.871 427.952 313.871 427.952 313.87C427.952 313.869 427.952 313.869 427.952 313.868C427.952 313.867 427.952 313.867 427.952 313.866C427.952 313.866 427.952 313.865 427.952 313.864C427.952 313.864 427.952 313.863 427.952 313.862C427.952 313.862 427.952 313.861 427.952 313.86C427.952 313.86 427.952 313.859 427.952 313.859C427.952 313.858 427.952 313.857 427.952 313.857C427.952 313.856 427.952 313.856 427.952 313.855C427.952 313.854 427.952 313.854 427.952 313.853C427.952 313.852 427.952 313.852 427.952 313.851C427.952 313.851 427.952 313.85 427.952 313.849C427.952 313.849 427.952 313.848 427.952 313.848C427.952 313.847 427.952 313.846 427.952 313.846C427.952 313.845 427.952 313.845 427.952 313.844C427.952 313.843 427.952 313.843 427.952 313.842C427.952 313.842 427.952 313.841 427.952 313.84C427.952 313.84 427.952 313.839 427.952 313.839C427.952 313.838 427.952 313.837 427.952 313.837C427.952 313.836 427.952 313.836 427.952 313.835C427.952 313.835 427.952 313.834 427.952 313.833C427.952 313.833 427.952 313.832 427.952 313.832C427.952 313.831 427.952 313.83 427.952 313.83C427.952 313.829 427.952 313.829 427.952 313.828C427.952 313.828 427.952 313.827 427.952 313.826C427.952 313.826 427.952 313.825 427.952 313.825C427.952 313.824 427.952 313.824 427.952 313.823C427.952 313.822 427.952 313.822 427.952 313.821C427.952 313.821 427.952 313.82 427.952 313.82C427.952 313.819 427.952 313.819 427.952 313.818C427.952 313.817 427.952 313.817 427.952 313.816C427.952 313.816 427.952 313.815 427.952 313.815C427.952 313.814 427.952 313.814 427.952 313.813C427.952 313.812 427.952 313.812 427.952 313.811C427.952 313.811 427.952 313.81 427.952 313.81C427.952 313.809 427.952 313.809 427.952 313.808C427.952 313.808 427.952 313.807 427.952 313.806C427.952 313.806 427.952 313.805 427.952 313.805C427.952 313.804 427.952 313.804 427.952 313.803C427.952 313.803 427.952 313.802 427.952 313.802C427.952 313.801 427.952 313.801 427.952 313.8C427.952 313.8 427.952 313.799 427.952 313.799C427.952 313.798 427.952 313.797 427.952 313.797C427.952 313.796 427.952 313.796 427.952 313.795C427.952 313.795 427.952 313.794 427.952 313.794C427.952 313.793 427.952 313.793 427.952 313.792C427.952 313.792 427.952 313.791 427.952 313.791C427.952 313.79 427.952 313.79 427.952 313.789C427.952 313.789 427.952 313.788 427.952 313.788C427.952 313.787 427.952 313.787 427.952 313.786C427.952 313.786 427.952 313.785 427.952 313.785C427.952 313.784 427.952 313.784 427.952 313.783C427.952 313.783 427.952 313.782 427.952 313.782C427.952 313.781 427.952 313.781 427.952 313.78C427.952 313.78 427.952 313.779 427.952 313.779C427.952 313.778 427.952 313.778 427.952 313.777C427.952 313.777 427.952 313.776 427.952 313.776C427.952 313.775 427.952 313.775 427.952 313.774C427.952 313.774 427.952 313.773 427.952 313.773C427.952 313.772 427.952 313.772 427.952 313.771C427.952 313.771 427.952 313.77 427.952 313.77C427.952 313.769 427.952 313.769 427.952 313.768C427.952 313.768 427.952 313.768 427.952 313.767C427.952 313.767 427.952 313.766 427.952 313.766C427.952 313.765 427.952 313.765 427.952 313.764C427.952 313.764 427.952 313.763 427.952 313.763C427.952 313.762 427.952 313.762 427.952 313.761C427.952 313.761 427.952 313.761 427.952 313.76C427.952 313.76 427.952 313.759 427.952 313.759C427.952 313.758 427.952 313.758 427.952 313.757C427.952 313.757 427.952 313.756 427.952 313.756C427.952 313.756 427.952 313.755 427.952 313.755C427.952 313.754 427.952 313.754 427.952 313.753C427.952 313.753 427.952 313.752 427.952 313.752C427.952 313.751 427.952 313.751 427.952 313.751C427.952 313.75 427.952 313.75 427.952 313.749C427.952 313.749 427.952 313.748 427.952 313.748C427.952 313.747 427.952 313.747 427.952 313.747C427.952 313.746 427.952 313.746 427.952 313.745C427.952 313.745 427.952 313.744 427.952 313.744C427.952 313.744 427.952 313.743 427.952 313.743C427.952 313.742 427.952 313.742 427.952 313.741C427.952 313.741 427.952 313.741 427.952 313.74C427.952 313.74 427.952 313.739 427.952 313.739C427.952 313.738 427.952 313.738 427.952 313.738C427.952 313.737 427.952 313.737 427.952 313.736C427.952 313.736 427.952 313.736 427.952 313.735C427.952 313.735 427.952 313.734 427.952 313.734C427.952 313.733 427.952 313.733 427.952 313.733C427.952 313.732 427.952 313.732 427.952 313.731C427.952 313.731 427.952 313.731 427.952 313.73C427.952 313.73 427.952 313.729 427.952 313.729C427.952 313.729 427.952 313.728 427.952 313.728C427.952 313.727 427.952 313.727 427.952 313.727C427.952 313.726 427.952 313.726 427.952 313.725C427.952 313.725 427.952 313.725 427.952 313.724C427.952 313.724 427.952 313.723 427.952 313.723C427.952 313.723 427.952 313.722 427.952 313.722C427.952 313.721 427.952 313.721 427.952 313.721C427.952 313.72 427.952 313.72 427.952 313.72C427.952 313.719 427.952 313.719 427.952 313.718C427.952 313.718 427.952 313.718 427.952 313.717C427.952 313.717 427.952 313.716 427.952 313.716C427.952 313.716 427.952 313.715 427.952 313.715C427.952 313.715 427.952 313.714 427.952 313.714C427.952 313.713 427.952 313.713 427.952 313.713C427.952 313.712 427.952 313.712 427.952 313.712C427.952 313.711 427.952 313.711 427.952 313.71C427.952 313.71 427.952 313.71 427.952 313.709C427.952 313.709 427.952 313.709 427.952 313.708C427.952 313.708 427.952 313.708 427.952 313.707C427.952 313.707 427.952 313.706 427.952 313.706C427.952 313.706 427.952 313.705 427.952 313.705C427.952 313.705 427.952 313.704 427.952 313.704C427.952 313.704 427.952 313.703 427.952 313.703C427.952 313.703 427.952 313.702 427.952 313.702C427.952 313.701 427.952 313.701 427.952 313.701C427.952 313.7 427.952 313.7 427.952 313.7C427.952 313.699 427.952 313.699 427.952 313.699C427.952 313.698 427.952 313.698 427.952 313.698C427.952 313.697 427.952 313.697 427.952 313.697C427.952 313.696 427.952 313.696 427.952 313.696C427.952 313.695 427.952 313.695 427.952 313.695C427.952 313.694 427.952 313.694 427.952 313.694C427.952 313.693 427.952 313.693 427.952 313.693C427.952 313.692 427.952 313.692 427.952 313.692C427.952 313.691 427.952 313.691 427.952 313.691C427.952 313.69 427.952 313.69 427.952 313.69C427.952 313.689 427.952 313.689 427.952 313.689C427.952 313.688 427.952 313.688 427.952 313.688C427.952 313.687 427.952 313.687 427.952 313.687C427.952 313.686 427.952 313.686 427.952 313.686C427.952 313.685 427.952 313.685 427.952 313.685C427.952 313.685 427.952 313.684 427.952 313.684C427.952 313.684 427.952 313.683 427.952 313.683C427.952 313.683 427.952 313.682 427.952 313.682C427.952 313.682 427.952 313.681 427.952 313.681C427.952 313.681 427.952 313.68 427.952 313.68C427.952 313.68 427.952 313.68 427.952 313.679C427.952 313.679 427.952 313.679 427.952 313.678C427.952 313.678 427.952 313.678 427.952 313.677C427.952 313.677 427.952 313.677 427.952 313.677C427.952 313.676 427.952 313.676 427.952 313.676C427.952 313.675 427.952 313.675 427.952 313.675C427.952 313.674 427.952 313.674 427.952 313.674C427.952 313.674 427.952 313.673 427.952 313.673C427.952 313.673 427.952 313.672 427.952 313.672C427.952 313.672 427.952 313.672 427.952 313.671C427.952 313.671 427.952 313.671 427.952 313.67C427.952 313.67 427.952 313.67 427.952 313.67C427.952 313.669 427.952 313.669 427.952 313.669C427.952 313.668 427.952 313.668 427.952 313.668C427.952 313.668 427.952 313.667 427.952 313.667C427.952 313.667 427.952 313.667 427.952 313.666C427.952 313.666 427.952 313.666 427.952 313.665C427.952 313.665 427.952 313.665 427.952 313.665C427.952 313.664 427.952 313.664 427.952 313.664C427.952 313.664 427.952 313.663 427.952 313.663C427.952 313.663 427.952 313.662 427.952 313.662C427.952 313.662 427.952 313.662 427.952 313.661C427.952 313.661 427.952 313.661 427.952 313.661C427.952 313.66 427.952 313.66 427.952 313.66C427.952 313.66 427.952 313.659 427.952 313.659C427.952 313.659 427.952 313.659 427.952 313.658C427.952 313.658 427.952 313.658 427.952 313.657C427.952 313.657 427.952 313.657 427.952 313.657C427.952 313.656 427.952 313.656 427.952 313.656C427.952 313.656 427.952 313.655 427.952 313.655C427.952 313.655 427.952 313.655 427.952 313.654C427.952 313.654 427.952 313.654 427.952 313.654C427.952 313.653 427.952 313.653 427.952 313.653C427.952 313.653 427.952 313.652 427.952 313.652C427.952 313.652 427.952 313.652 427.952 313.652C427.952 313.651 427.952 313.651 427.952 313.651C427.952 313.651 427.952 313.65 427.952 313.65C427.952 313.65 427.952 313.65 427.952 313.649C427.952 313.649 427.952 313.649 427.952 313.649C427.952 313.648 427.952 313.648 427.952 313.648C427.952 313.648 427.952 313.648 427.952 313.647C427.952 313.647 427.952 313.647 427.952 313.647C427.952 313.646 427.952 313.646 427.952 313.646C427.952 313.646 427.952 313.645 427.952 313.645C427.952 313.645 427.952 313.645 427.952 313.645C427.952 313.644 427.952 313.644 427.952 313.644C427.952 313.644 427.952 313.643 427.952 313.643C427.952 313.643 427.952 313.643 427.952 313.643C427.952 313.642 427.952 313.642 427.952 313.642C427.952 313.642 427.952 313.642 427.952 313.641C427.952 313.641 427.952 313.641 427.952 313.641C427.952 313.64 427.952 313.64 427.952 313.64C427.952 313.64 427.952 313.64 427.952 313.639C427.952 313.639 427.952 313.639 427.952 313.639C427.952 313.639 427.952 313.638 427.952 313.638C427.952 313.638 427.952 313.638 427.952 313.638C427.952 313.637 427.952 313.637 427.952 313.637C427.952 313.637 427.952 313.637 427.952 313.636C427.952 313.636 427.952 313.636 427.952 313.636C427.952 313.635 427.952 313.635 427.952 313.635C427.952 313.635 427.952 313.635 427.952 313.634C427.952 313.634 427.952 313.634 427.952 313.634C427.952 313.634 427.952 313.634 427.952 313.633C427.952 313.633 427.952 313.633 427.952 313.633C427.952 313.633 427.952 313.632 427.952 313.632C427.952 313.632 427.952 313.632 427.952 313.632C427.952 313.631 427.952 313.631 427.952 313.631C427.952 313.631 427.952 313.631 427.952 313.63C427.952 313.63 427.952 313.63 427.952 313.63C427.952 313.63 427.952 313.63 427.952 313.629C427.952 313.629 427.952 313.629 427.952 313.629C427.952 313.629 427.952 313.628 427.952 313.628C427.952 313.628 427.952 313.628 427.952 313.628C427.952 313.628 427.952 313.627 427.952 313.627C427.952 313.627 427.952 313.627 427.952 313.627C427.952 313.626 427.952 313.626 427.952 313.626C427.952 313.626 427.952 313.626 427.952 313.626C427.952 313.625 427.952 313.625 427.952 313.625C427.952 313.625 427.952 313.625 427.952 313.625C427.952 313.624 427.952 313.624 427.952 313.624C427.952 313.624 427.952 313.624 427.952 313.624C427.952 313.623 427.952 313.623 427.952 313.623C427.952 313.623 427.952 313.623 427.952 313.623C427.952 313.622 427.952 313.622 427.952 313.622C427.952 313.622 427.952 313.622 427.952 313.622C427.952 313.621 427.952 313.621 427.952 313.621C427.952 313.621 427.952 313.621 427.952 313.621C427.952 313.621 427.952 313.62 427.952 313.62C427.952 313.62 427.952 313.62 427.952 313.62C427.952 313.62 427.952 313.619 427.952 313.619C427.952 313.619 427.952 313.619 427.952 313.619C427.952 313.619 427.952 313.618 427.952 313.618C427.952 313.618 427.952 313.618 427.952 313.618C427.952 313.618 427.952 313.618 427.952 313.617C427.952 313.617 427.952 313.617 427.952 313.617C427.952 313.617 427.952 313.617 427.952 313.617C427.952 313.616 427.952 313.616 427.952 313.616C427.952 313.616 427.952 313.616 427.952 313.616C427.952 313.616 427.952 313.615 427.952 313.615C427.952 313.615 427.952 313.615 427.952 313.615C427.952 313.615 427.952 313.615 427.952 313.614C427.952 313.614 427.952 313.614 427.952 313.614C427.952 313.614 427.952 313.614 427.952 313.614C427.952 313.613 427.952 313.613 427.952 313.613C427.952 313.613 427.952 313.613 427.952 313.613C427.952 313.613 427.952 313.613 427.952 313.612C427.952 313.612 427.952 313.612 427.952 313.612C427.952 313.612 427.952 313.612 427.952 313.612C427.952 313.612 427.952 313.611 427.952 313.611C427.952 313.611 427.952 313.611 427.952 313.611C427.952 313.611 427.952 313.611 427.952 313.61C427.952 313.61 427.952 313.61 427.952 313.61C427.952 313.61 427.952 313.61 427.952 313.61C427.952 313.61 427.952 313.609 427.952 313.609C427.952 313.609 427.952 313.609 427.952 313.609C427.952 313.609 427.952 313.609 427.952 313.609C427.952 313.609 427.952 313.608 427.952 313.608C427.952 313.608 427.952 313.608 427.952 313.608C427.952 313.608 427.952 313.608 427.952 313.608C427.952 313.607 427.952 313.607 427.952 313.607C427.952 313.607 427.952 313.607 427.952 313.607C427.952 313.607 427.952 313.607 427.952 313.607C427.952 313.606 427.952 313.606 427.952 313.606C427.952 313.606 427.952 313.606 427.952 313.606C427.952 313.606 427.952 313.606 427.952 313.606C427.952 313.605 427.952 313.605 427.952 313.605C427.952 313.605 427.952 313.605 427.952 313.605C427.952 313.605 427.952 313.605 427.952 313.605C427.952 313.605 427.952 313.604 427.952 313.604C427.952 313.604 427.952 313.604 427.952 313.604C427.952 313.604 427.952 313.604 427.952 313.604C427.952 313.604 427.952 313.603 427.952 313.603C427.952 313.603 427.952 313.603 427.952 313.603C427.952 313.603 427.952 313.603 427.952 313.603C427.952 313.603 427.952 313.603 427.952 313.602C427.952 313.602 427.952 313.602 427.952 313.602C427.952 313.602 427.952 313.602 427.952 313.602C427.952 313.602 427.952 313.602 427.952 313.602C427.952 313.602 427.952 313.601 427.952 313.601C427.952 313.601 427.952 313.601 427.952 313.601C427.952 313.601 427.952 313.601 427.952 313.601C427.952 313.601 427.952 313.601 427.952 313.601C427.952 313.6 427.952 313.6 427.952 313.6C427.952 313.6 427.952 313.6 427.952 313.6C427.952 313.6 427.952 313.6 427.952 313.6C427.952 313.6 427.952 313.6 427.952 313.599C427.952 313.599 427.952 313.599 427.952 313.599C427.952 313.599 427.952 313.599 427.952 313.599C427.952 313.599 427.952 313.599 427.952 313.599C427.952 313.599 427.952 313.599 427.952 313.598C427.952 313.598 427.952 313.598 427.952 313.598C427.952 313.598 427.952 313.598 427.952 313.598C427.952 313.598 427.952 313.598 427.952 313.598C427.952 313.598 427.952 313.598 427.952 313.598C427.952 313.597 427.952 313.597 427.952 313.597C427.952 313.597 427.952 313.597 427.952 313.597C427.952 313.597 427.952 313.597 427.952 313.597C427.952 313.597 427.952 313.597 427.952 313.597C427.952 313.597 427.952 313.596 427.952 313.596C427.952 313.596 427.952 313.596 427.952 313.596C427.952 313.596 427.952 313.596 427.952 313.596C427.952 313.596 427.952 313.596 427.952 313.596C427.952 313.596 427.952 313.596 427.952 313.596C427.952 313.596 427.952 313.595 427.952 313.595C427.952 313.595 427.952 313.595 427.952 313.595C427.952 313.595 427.952 313.595 427.952 313.595C427.952 313.595 427.952 313.595 427.952 313.595C427.952 313.595 427.952 313.595 427.952 313.595C427.952 313.595 427.952 313.594 427.952 313.594C427.952 313.594 427.952 313.594 427.952 313.594C427.952 313.594 427.952 313.594 427.952 313.594C427.952 313.594 427.952 313.594 427.952 313.594C427.952 313.594 427.952 313.594 427.952 313.594C427.952 313.594 427.952 313.594 427.952 313.594C427.952 313.593 427.952 313.593 427.952 313.593C427.952 313.593 427.952 313.593 427.952 313.593C427.952 313.593 427.952 313.593 427.952 313.593C427.952 313.593 427.952 313.593 427.952 313.593C427.952 313.593 427.952 313.593 427.952 313.593C427.952 313.593 427.952 313.593 427.952 313.592C427.952 313.592 427.952 313.592 427.952 313.592C427.952 313.592 427.952 313.592 427.952 313.592C427.952 313.592 427.952 313.592 427.952 313.592C427.952 313.592 427.952 313.592 427.952 313.592C427.952 313.592 427.952 313.592 427.952 313.592C427.952 313.592 427.952 313.592 427.952 313.592C427.952 313.592 427.952 313.591 427.952 313.591C427.952 313.591 427.952 313.591 427.952 313.591C427.952 313.591 427.952 313.591 427.952 313.591C427.952 313.591 427.952 313.591 427.952 313.591C427.952 313.591 427.952 313.591 427.952 313.591C427.952 313.591 427.952 313.591 427.952 313.591C427.952 313.591 427.952 313.591 427.952 313.591C427.952 313.591 427.952 313.591 427.952 313.59C427.952 313.59 427.952 313.59 427.952 313.59C427.952 313.59 427.952 313.59 427.952 313.59C427.952 313.59 427.952 313.59 427.952 313.59C427.952 313.59 427.952 313.59 427.952 313.59C427.952 313.59 427.952 313.59 427.952 313.59C427.952 313.59 427.952 313.59 427.952 313.59C427.952 313.59 427.952 313.59 427.952 313.59C427.952 313.59 427.952 313.59 427.952 313.59C427.952 313.59 427.952 313.589 427.952 313.589C427.952 313.589 427.952 313.589 427.952 313.589C427.952 313.589 427.952 313.589 427.952 313.589C427.952 313.589 427.952 313.589 427.952 313.589C427.952 313.589 427.952 313.589 427.952 313.589C427.952 313.589 427.952 313.589 427.952 313.589C427.952 313.589 427.952 313.589 427.952 313.589C427.952 313.589 427.952 313.589 427.952 313.589C427.952 313.589 427.952 313.589 427.952 313.589C427.952 313.589 427.952 313.589 427.952 313.589C427.952 313.589 427.952 313.588 427.952 313.588C427.952 313.588 427.952 313.588 427.952 313.588C427.952 313.588 427.952 313.588 427.952 313.588C427.952 313.588 427.952 313.588 427.952 313.588C427.952 313.588 427.952 313.588 427.952 313.588C427.952 313.588 427.952 313.588 427.952 313.588C427.952 313.588 427.952 313.588 427.952 313.588C427.952 313.588 427.952 313.588 427.952 313.588C427.952 313.588 427.952 313.588 427.952 313.588C427.952 313.588 427.952 313.588 427.952 313.588C427.952 313.588 427.952 313.588 427.952 313.588C427.952 313.588 427.952 313.588 427.952 313.588C427.952 313.588 427.952 313.588 427.952 313.587C427.952 313.587 427.952 313.587 427.952 313.587C427.952 313.587 427.952 313.587 427.952 313.587C427.952 313.587 427.952 313.587 427.952 313.587C427.952 313.587 427.952 313.587 427.952 313.587C427.952 313.587 427.952 313.587 427.952 313.587C427.952 313.587 427.952 313.587 427.952 313.587C427.952 313.587 427.952 313.587 427.952 313.587C427.952 313.587 427.952 313.587 427.952 313.587V313.587C427.952 313.587 427.952 313.587 427.952 313.587C427.952 313.587 427.952 313.587 427.952 313.587C427.952 313.587 427.952 313.587 427.952 313.587V313.587C427.952 313.587 427.952 313.587 427.952 313.587V313.587C427.952 313.587 427.952 313.587 427.952 313.587V313.587C427.952 313.587 427.952 313.587 427.952 313.587C427.952 313.587 427.952 313.587 427.952 313.586V313.586C427.952 313.586 427.952 313.586 427.952 313.586C427.952 313.586 427.952 313.586 427.952 313.586V313.586V313.586V313.586C427.952 313.586 427.952 313.586 427.952 313.586C427.952 313.586 427.952 313.586 427.952 313.586C427.952 313.586 427.952 313.586 427.952 313.586C427.952 313.586 427.952 313.586 427.952 313.586C427.952 313.586 427.952 313.586 427.952 313.586C427.952 313.586 427.952 313.586 427.952 313.586V313.586V313.586C427.952 313.586 427.952 313.586 427.952 313.586C427.952 313.586 427.952 313.586 427.952 313.586V313.586C427.952 313.586 427.952 313.586 427.952 313.586V313.586C427.952 313.586 427.952 313.586 427.952 313.586C427.952 313.586 427.952 313.586 427.952 313.586C427.952 313.586 427.952 313.586 427.952 313.586C427.952 313.586 427.952 313.586 427.952 313.586V313.586V313.586C427.952 313.586 427.952 313.586 427.952 313.586C427.952 313.586 427.952 313.586 427.952 313.586V313.586C427.452 313.586 426.952 313.586 427.452 313.586ZM426.962 313.918C413.373 382.071 352.226 431.799 278.749 428.798L278.708 429.797C352.676 432.818 414.258 382.75 427.943 314.114L426.962 313.918ZM278.747 428.798C238.404 427.298 201.046 409.835 174.402 374.742C147.75 339.641 131.785 286.856 134.339 214.667L133.34 214.632C130.78 286.976 146.775 340.01 173.605 375.346C200.441 410.692 238.085 428.286 278.71 429.797L278.747 428.798ZM134.339 214.669C136.462 160.661 171.296 106.164 220.63 72.2499L220.063 71.4259C170.531 105.477 135.478 160.239 133.34 214.63L134.339 214.669ZM220.702 72.1898L221.128 71.7596L220.417 71.0559L219.991 71.486L220.702 72.1898ZM220.773 71.4077C221.052 70.9931 221.27 71.3566 221.13 71.7569C221.13 71.7572 221.129 71.7579 221.129 71.7583C221.129 71.7586 221.128 71.7589 221.128 71.759C221.128 71.7591 221.128 71.7593 221.128 71.7593C221.128 71.7594 221.128 71.7594 221.128 71.7595C221.128 71.7595 221.128 71.7595 221.128 71.7594C221.128 71.7594 221.128 71.7592 221.129 71.7588C221.129 71.7579 221.131 71.7562 221.134 71.7529C221.141 71.7462 221.154 71.7327 221.181 71.7059C221.234 71.6521 221.341 71.5445 221.554 71.3295L220.843 70.6257C220.63 70.8408 220.524 70.9483 220.471 71.0021C220.444 71.029 220.431 71.0424 220.424 71.0491C220.421 71.0525 220.419 71.0542 220.418 71.055C220.418 71.0555 220.417 71.0557 220.417 71.0558C220.417 71.0559 220.417 71.0559 220.417 71.056C220.417 71.056 220.417 71.0561 220.417 71.0562C220.417 71.0562 220.417 71.0563 220.417 71.0565C220.417 71.0566 220.416 71.0568 220.416 71.0572C220.416 71.0575 220.415 71.0582 220.415 71.0586C220.275 71.4588 220.493 71.8224 220.773 71.4077ZM221.494 71.3812C233.81 62.3783 247.829 55.0884 262.698 49.9423L262.371 48.9973C247.411 54.1749 233.303 61.5103 220.904 70.5739L221.494 71.3812ZM262.716 49.9359C273.763 45.6469 284.813 42.6436 296.292 40.4978L296.108 39.5149C284.576 41.6706 273.466 44.6896 262.354 49.0037L262.716 49.9359ZM296.303 40.4956C355.453 28.0388 418.454 34.0517 443.159 37.0614L443.28 36.0688C418.553 33.0563 355.415 27.0248 296.097 39.5171L296.303 40.4956ZM443.406 36.1011C368.346 5.96669 307.335 -2.65243 256.543 -0.0673657L256.594 0.931342C307.224 -1.64547 368.09 6.94166 443.033 37.0291L443.406 36.1011ZM256.319 -0.00112622C220.472 20.6755 172.219 57.7381 144.887 120.245L145.803 120.646C173.018 58.4077 221.073 21.4834 256.818 0.865102L256.319 -0.00112622ZM145.345 120.446C145.843 120.493 145.843 120.493 145.843 120.492C145.843 120.492 145.843 120.491 145.843 120.49C145.843 120.489 145.844 120.486 145.844 120.482C145.845 120.475 145.846 120.464 145.847 120.449C145.85 120.419 145.855 120.375 145.861 120.315C145.873 120.196 145.892 120.019 145.918 119.785C145.97 119.317 146.052 118.623 146.169 117.723C146.403 115.924 146.778 113.301 147.343 110.011C148.472 103.432 150.36 94.1881 153.39 83.5351C159.453 62.2229 170.083 35.3019 188.348 12.7914L187.571 12.1613C169.188 34.8172 158.511 61.8808 152.428 83.2615C149.386 93.955 147.492 103.235 146.357 109.842C145.79 113.146 145.413 115.783 145.177 117.594C145.059 118.5 144.977 119.2 144.924 119.674C144.898 119.911 144.879 120.091 144.866 120.213C144.86 120.273 144.855 120.32 144.852 120.351C144.85 120.366 144.849 120.378 144.849 120.386C144.848 120.39 144.848 120.393 144.848 120.395C144.848 120.396 144.848 120.397 144.847 120.397C144.847 120.398 144.847 120.398 145.345 120.446ZM187.816 11.9973C153.238 22.3392 125.07 37.8503 101.614 52.4868L102.143 53.3352C125.563 38.7212 153.646 23.2611 188.103 12.9554L187.816 11.9973ZM101.564 52.522C99.3763 54.2889 97.7474 55.9469 95.6534 57.2151L96.1715 58.0704C98.339 56.7577 100.119 54.9744 102.193 53.3L101.564 52.522ZM95.4127 57.6265C94.5597 83.889 95.413 121.331 98.8226 175.967L99.8206 175.905C96.4119 121.281 95.5607 83.8755 96.4122 57.659L95.4127 57.6265ZM99.7155 175.628C98.9541 174.654 98.035 172.998 96.9996 170.738C95.9682 168.486 94.8347 165.665 93.639 162.383C91.2477 155.819 88.615 147.431 86.0607 138.111C80.9514 119.469 76.1644 97.13 74.2504 78.2398L73.2555 78.3406C75.1769 97.3042 79.9781 119.701 85.0963 138.375C87.6557 147.714 90.2965 156.129 92.6994 162.725C93.9007 166.023 95.0443 168.871 96.0904 171.154C97.1325 173.429 98.091 175.174 98.9278 176.244L99.7155 175.628ZM73.3978 77.9383C48.208 103.365 30.7012 130.95 18.7457 159.396L19.6675 159.783C31.576 131.449 49.013 103.974 74.1082 78.6421L73.3978 77.9383ZM18.7177 159.695C24.2681 185.553 36.2257 220.909 62.7147 252.823L63.4841 252.184C37.1313 220.435 25.2249 185.245 19.6955 159.485L18.7177 159.695ZM63.3247 252.057C59.9712 250.365 50.207 243.729 39.1392 234.007C28.0786 224.292 15.7615 211.533 7.27535 197.613L6.42151 198.134C14.9811 212.174 27.3803 225.01 38.4792 234.759C49.5709 244.502 59.4093 251.201 62.8741 252.95L63.3247 252.057ZM6.36138 197.761C-19.2528 308.077 30.6844 426.544 92.5844 485.58L93.2745 484.856C31.5929 426.029 -18.1876 307.91 7.33547 197.987L6.36138 197.761ZM93.0062 485.712C106.868 483.559 125.108 480.114 143.088 474.89C161.058 469.669 178.808 462.66 191.662 453.361L191.076 452.551C178.361 461.749 160.74 468.72 142.809 473.93C124.885 479.138 106.69 482.575 92.8527 484.724L93.0062 485.712ZM190.888 452.82C190.855 452.933 190.731 453.192 190.468 453.619C190.214 454.03 189.857 454.556 189.397 455.188C188.478 456.452 187.163 458.12 185.481 460.1C182.117 464.057 177.296 469.246 171.264 474.906C159.197 486.228 142.303 499.418 122.552 508.421L122.967 509.331C142.848 500.268 159.832 487.004 171.948 475.635C178.008 469.95 182.855 464.734 186.243 460.747C187.937 458.754 189.268 457.066 190.206 455.777C190.674 455.132 191.047 454.584 191.318 454.145C191.58 453.722 191.775 453.355 191.85 453.092L190.888 452.82ZM122.501 509.304C174.573 540.756 230.053 553.677 277.471 556.746C324.876 559.814 364.268 553.037 384.172 545.043L383.799 544.115C364.072 552.038 324.84 558.81 277.535 555.748C230.242 552.688 174.925 539.8 123.018 508.448L122.501 509.304ZM384.156 545.05C430.593 528.239 461.338 502.338 481.09 472.549C500.838 442.766 509.579 409.126 512.061 376.857C514.542 344.589 510.767 313.675 505.466 289.323C500.168 264.989 493.336 247.154 489.672 241.062L488.815 241.577C492.394 247.529 499.199 265.236 504.489 289.536C509.775 313.819 513.536 344.632 511.064 376.78C508.592 408.927 499.887 442.391 480.257 471.997C460.631 501.596 430.064 527.367 383.815 544.109L384.156 545.05ZM489.398 241.795C490.921 241.299 492.762 241.373 494.895 242.01C497.027 242.647 499.418 243.838 502.014 245.529C507.206 248.912 513.153 254.256 519.398 261.016C531.885 274.531 545.498 293.639 556.561 313.826L557.438 313.345C546.342 293.098 532.682 273.921 520.133 260.337C513.86 253.547 507.849 248.137 502.56 244.691C499.916 242.968 497.436 241.726 495.182 241.052C492.928 240.379 490.868 240.265 489.088 240.844L489.398 241.795ZM435.936 221.894C425.144 222.748 417.696 220.821 412.645 217.615C407.598 214.411 404.894 209.898 403.643 205.48L402.681 205.753C403.987 210.368 406.823 215.103 412.109 218.459C417.392 221.813 425.073 223.757 436.015 222.891L435.936 221.894ZM403.61 205.395C403.681 205.538 403.673 205.703 403.602 205.834C403.548 205.935 403.473 205.984 403.453 205.997C403.409 206.026 403.384 206.028 403.422 206.017C403.483 206 403.602 205.977 403.796 205.951C404.173 205.9 404.752 205.847 405.51 205.794C407.022 205.689 409.211 205.585 411.857 205.484C417.147 205.283 424.241 205.095 431.352 204.933C438.462 204.772 445.586 204.638 450.932 204.544C453.605 204.497 455.834 204.46 457.394 204.434C458.175 204.422 458.788 204.412 459.206 204.406C459.415 204.402 459.575 204.4 459.683 204.398C459.737 204.397 459.778 204.397 459.805 204.396C459.819 204.396 459.829 204.396 459.836 204.396C459.84 204.396 459.842 204.396 459.844 204.396C459.845 204.396 459.846 204.396 459.846 204.396C459.846 204.396 459.847 204.396 459.839 203.896C459.832 203.396 459.831 203.396 459.831 203.396C459.831 203.396 459.83 203.396 459.829 203.396C459.827 203.396 459.825 203.396 459.821 203.396C459.814 203.396 459.804 203.396 459.79 203.396C459.763 203.397 459.722 203.398 459.668 203.398C459.56 203.4 459.399 203.402 459.19 203.406C458.772 203.412 458.159 203.422 457.378 203.435C455.817 203.46 453.588 203.497 450.915 203.544C445.567 203.638 438.442 203.772 431.329 203.934C424.218 204.095 417.117 204.283 411.819 204.485C409.171 204.586 406.969 204.69 405.44 204.797C404.678 204.85 404.073 204.904 403.661 204.96C403.46 204.987 403.283 205.018 403.152 205.054C403.095 205.071 403 205.1 402.914 205.155C402.873 205.181 402.785 205.244 402.723 205.358C402.644 205.503 402.636 205.681 402.714 205.838L403.61 205.395ZM459.839 203.896C459.345 203.82 459.345 203.82 459.345 203.82C459.345 203.82 459.345 203.82 459.345 203.82C459.345 203.82 459.345 203.821 459.345 203.821C459.345 203.822 459.344 203.825 459.344 203.828C459.343 203.834 459.341 203.845 459.338 203.859C459.334 203.887 459.326 203.931 459.314 203.989C459.292 204.106 459.256 204.279 459.202 204.503C459.094 204.949 458.916 205.594 458.636 206.375C458.076 207.939 457.112 210.043 455.497 212.199C452.277 216.498 446.441 221.046 435.935 221.894L436.015 222.891C446.817 222.019 452.912 217.318 456.298 212.799C457.985 210.546 458.992 208.349 459.577 206.712C459.87 205.894 460.058 205.215 460.174 204.737C460.231 204.499 460.271 204.31 460.296 204.18C460.309 204.115 460.318 204.064 460.324 204.029C460.327 204.011 460.329 203.998 460.331 203.988C460.332 203.983 460.332 203.979 460.333 203.977C460.333 203.975 460.333 203.974 460.333 203.973C460.333 203.973 460.333 203.972 460.333 203.972C460.333 203.972 460.333 203.971 459.839 203.896Z" fill="url(#paint0_linear)" mask="url(#path-1-inside-1)"/>
</g>
<defs>
<linearGradient id="paint0_linear" x1="278.5" y1="0" x2="278.5" y2="557" gradientUnits="userSpaceOnUse">
<stop stop-color="#15161C"/>
<stop offset="1" stop-color="#16161C" stop-opacity="0"/>
</linearGradient>
</defs>
</svg>
