<svg width="16" height="8" viewBox="0 0 16 8" fill="none" xmlns="http://www.w3.org/2000/svg">
<path d="M0.0926876 3.76012L3.64816 0.519328C3.74694 0.439094 3.85494 0.423657 3.97224 0.473049C4.08941 0.522506 4.14824 0.611951 4.14824 0.741642V2.81573H15.7037C15.7902 2.81573 15.8612 2.84346 15.9167 2.89901C15.9721 2.95453 16 3.02556 16 3.11195V4.88968C16 4.97605 15.9723 5.04707 15.9167 5.10253C15.8611 5.15805 15.7901 5.18578 15.7037 5.18578H4.14818V7.25983C4.14818 7.38346 4.08925 7.4729 3.97214 7.52829C3.85474 7.57788 3.74675 7.55914 3.64796 7.4729L0.0924931 4.19488C0.030777 4.1332 0 4.05926 0 3.97277C0 3.89273 0.0309715 3.82183 0.0926876 3.76012Z" fill="white"/>
</svg>
