<svg width="17" height="17" viewBox="0 0 17 17" fill="none" xmlns="http://www.w3.org/2000/svg">
<rect width="17" height="17" rx="4" fill="#349E72"/>
<path d="M12.9765 7.42199C13.1635 6.26621 12.2104 5.64489 10.9073 5.2304L11.33 3.66475L10.2975 3.42724L9.88598 4.95163C9.61494 4.8892 9.33625 4.8303 9.05932 4.77194L9.47383 3.23751L8.44227 3L8.01924 4.56511C7.79464 4.51788 7.57416 4.47119 7.36014 4.42206L7.36132 4.41717L5.93789 4.08901L5.66331 5.1069C5.66331 5.1069 6.42912 5.26894 6.41295 5.27899C6.83099 5.37535 6.90683 5.63077 6.8939 5.83326L6.41236 7.61688C6.44117 7.62366 6.47851 7.63344 6.51967 7.64864L6.41089 7.62366L5.73563 10.1222C5.68448 10.2395 5.55484 10.4154 5.26263 10.3486C5.27292 10.3625 4.5124 10.1757 4.5124 10.1757L4 11.2669L5.34347 11.5761C5.59335 11.6339 5.83823 11.6944 6.079 11.7514L5.65185 13.3353L6.68282 13.5728L7.10615 12.006C7.38748 12.0766 7.66088 12.1417 7.9284 12.2031L7.50684 13.7625L8.53898 14L8.96613 12.4194C10.7262 12.727 12.0499 12.6029 12.6064 11.1333C13.0553 9.94988 12.5844 9.26722 11.6584 8.82179C12.3327 8.67766 12.8407 8.26806 12.9763 7.42199H12.9765ZM10.618 10.4754C10.2987 11.6589 8.14094 11.0193 7.44099 10.8587L8.00777 8.76072C8.70743 8.92195 10.9508 9.24116 10.6183 10.4754H10.618ZM10.9369 7.40489C10.6459 8.48141 8.84972 7.93446 8.26676 7.80037L8.78063 5.89759C9.36359 6.03168 11.2403 6.28195 10.9369 7.40489Z" fill="white"/>
</svg>
