<svg width="11" height="14" viewBox="0 0 11 14" fill="none" xmlns="http://www.w3.org/2000/svg">
<path d="M10.9713 5.62798C11.1999 4.15699 10.035 3.36622 8.4422 2.83869L8.95887 0.846046L7.697 0.543763L7.19398 2.4839C6.8627 2.40444 6.52208 2.32948 6.18361 2.2552L6.69023 0.302283L5.42944 0L4.9124 1.99196C4.63789 1.93184 4.36841 1.87242 4.10684 1.8099L4.10828 1.80368L2.36853 1.38601L2.03294 2.68151C2.03294 2.68151 2.96893 2.88775 2.94916 2.90053C3.46009 3.02317 3.55279 3.34825 3.53698 3.60597L2.94845 5.87603C2.98366 5.88466 3.02929 5.8971 3.07959 5.91645L2.94665 5.88466L2.12133 9.06468C2.05881 9.21392 1.90036 9.43778 1.54321 9.35279C1.55578 9.37041 0.626267 9.13273 0.626267 9.13273L0 10.5215L1.64202 10.915C1.94743 10.9886 2.24673 11.0656 2.54099 11.1382L2.01893 13.154L3.279 13.4562L3.7964 11.4622C4.14026 11.552 4.47441 11.6349 4.80137 11.713L4.28613 13.6977L5.54765 14L6.06972 11.9884C8.22087 12.3798 9.83881 12.2219 10.519 10.3515C11.0676 8.8453 10.492 7.97646 9.36022 7.40955C10.1845 7.22611 10.8053 6.7048 10.971 5.62798H10.9713ZM8.08864 9.51413C7.69844 11.0204 5.06115 10.2064 4.20565 10.0019L4.89839 7.33182C5.75353 7.53703 8.49537 7.94329 8.089 9.51413H8.08864ZM8.47849 5.60622C8.12278 6.97634 5.92743 6.28022 5.21493 6.10956L5.843 3.68785C6.55549 3.85851 8.84929 4.17703 8.47849 5.60622Z" fill="#D1C881"/>
</svg>
