<svg width="16" height="16" viewBox="0 0 16 16" fill="none" xmlns="http://www.w3.org/2000/svg">
<path d="M5 7.5V8.5C5 8.77637 4.77637 9 4.5 9H3.5C3.22362 9 3 8.77637 3 8.5V7.5C3 7.22363 3.22362 7 3.5 7H4.5C4.77637 7 5 7.22363 5 7.5ZM4.5 11H3.5C3.22362 11 3 11.2236 3 11.5V12.5C3 12.7764 3.22362 13 3.5 13H4.5C4.77637 13 5 12.7764 5 12.5V11.5C5 11.2236 4.77637 11 4.5 11ZM8.5 7H7.5C7.22363 7 7 7.22363 7 7.5V8.5C7 8.77637 7.22363 9 7.5 9H8.5C8.77637 9 9 8.77637 9 8.5V7.5C9 7.22363 8.77637 7 8.5 7ZM8.5 11H7.5C7.22363 11 7 11.2236 7 11.5V12.5C7 12.7764 7.22363 13 7.5 13H8.5C8.77637 13 9 12.7764 9 12.5V11.5C9 11.2236 8.77637 11 8.5 11ZM12.5 7H11.5C11.2236 7 11 7.22363 11 7.5V8.5C11 8.77637 11.2236 9 11.5 9H12.5C12.7764 9 13 8.77637 13 8.5V7.5C13 7.22363 12.7764 7 12.5 7ZM12.5 11H11.5C11.2236 11 11 11.2236 11 11.5V12.5C11 12.7764 11.2236 13 11.5 13H12.5C12.7764 13 13 12.7764 13 12.5V11.5C13 11.2236 12.7764 11 12.5 11ZM3.5 3H4.5C4.77637 3 5 2.77638 5 2.5V0.5C5 0.223625 4.77637 0 4.5 0H3.5C3.22362 0 3 0.223625 3 0.5V2.5C3 2.77638 3.22362 3 3.5 3ZM16 4V14C16 15.1045 15.1045 16 14 16H2C0.8955 16 0 15.1045 0 14V4C0 2.8955 0.8955 2 2 2H2.5V2.5C2.5 3.05078 2.94872 3.5 3.5 3.5H4.5C5.05128 3.5 5.5 3.05078 5.5 2.5V2H10.5V2.5C10.5 3.05078 10.9492 3.5 11.5 3.5H12.5C13.0508 3.5 13.5 3.05078 13.5 2.5V2H14C15.1045 2 16 2.8955 16 4ZM15 6C15 5.44922 14.5518 5 14 5H2C1.44872 5 1 5.44922 1 6V14C1 14.5518 1.44872 15 2 15H14C14.5518 15 15 14.5518 15 14V6ZM11.5 3H12.5C12.7764 3 13 2.77638 13 2.5V0.5C13 0.223625 12.7764 0 12.5 0H11.5C11.2236 0 11 0.223625 11 0.5V2.5C11 2.77638 11.2236 3 11.5 3Z" fill="#C2C2C2"/>
</svg>
