<svg width="11" height="11" viewBox="0 0 11 11" fill="none" xmlns="http://www.w3.org/2000/svg">
<path d="M7.11912 5.31799L10.2632 2.17412C10.7607 1.67663 10.7607 0.870156 10.2632 0.372924C9.76627 -0.124308 8.95929 -0.124308 8.46231 0.372924L5.31818 3.51731L2.17405 0.372924C1.67708 -0.124308 0.870093 -0.124308 0.373115 0.372924C-0.124372 0.870411 -0.124372 1.67689 0.373115 2.17412L3.51699 5.31799L0.373115 8.46186C-0.124372 8.95935 -0.124372 9.76582 0.373115 10.2631C0.621477 10.5119 0.947785 10.636 1.27358 10.636C1.59913 10.636 1.92569 10.5119 2.17405 10.2631L5.31818 7.11918L8.46231 10.2633C8.71093 10.5122 9.03698 10.6362 9.36278 10.6362C9.68858 10.6362 10.0149 10.5122 10.2632 10.2633C10.7607 9.76582 10.7607 8.95935 10.2632 8.46212L7.11912 5.31799Z" fill="#DEDEDE"/>
</svg>
