<svg width="13" height="10" viewBox="0 0 13 10" fill="none" xmlns="http://www.w3.org/2000/svg">
<path d="M12.7652 1.39595L11.6245 0.313624C11.4681 0.165107 11.2779 0.0908203 11.0543 0.0908203C10.8306 0.0908203 10.6403 0.165107 10.4839 0.313624L4.98193 5.54231L2.51611 3.19455C2.35954 3.04598 2.16944 2.97177 1.94586 2.97177C1.72213 2.97177 1.53203 3.04598 1.37546 3.19455L0.234834 4.2769C0.0782586 4.42545 0 4.60588 0 4.81815C0 5.03025 0.0782586 5.21085 0.234834 5.35937L3.27091 8.24021L4.41162 9.32253C4.56811 9.47116 4.75826 9.54537 4.98193 9.54537C5.20552 9.54537 5.39567 9.47097 5.55225 9.32253L6.69293 8.24021L12.7652 2.47836C12.9216 2.32979 13 2.14938 13 1.93711C13.0001 1.72496 12.9216 1.54452 12.7652 1.39595Z" fill="#686D7A"/>
</svg>
