<svg width="16" height="16" viewBox="0 0 16 16" fill="none" xmlns="http://www.w3.org/2000/svg">
<path d="M12.0889 3.2002H0.711111C0.284444 3.2002 0 3.48464 0 3.91131V15.2891C0 15.7158 0.284444 16.0002 0.711111 16.0002H12.0889C12.5156 16.0002 12.8 15.7158 12.8 15.2891V3.91131C12.8 3.48464 12.5156 3.2002 12.0889 3.2002ZM11.0222 13.8669C11.0222 14.0802 10.88 14.2224 10.6667 14.2224H2.13333C1.92 14.2224 1.77778 14.0802 1.77778 13.8669V5.33353C1.77778 5.1202 1.92 4.97797 2.13333 4.97797H10.6667C10.88 4.97797 11.0222 5.1202 11.0222 5.33353V13.8669Z" fill="white"/>
<path d="M15.2888 0H4.97771C4.55105 0 4.2666 0.284445 4.2666 0.711111V1.06667C4.2666 1.49333 4.55105 1.77778 4.97771 1.77778H13.8666C14.0799 1.77778 14.2222 1.92 14.2222 2.13333V11.0222C14.2222 11.4489 14.5066 11.7333 14.9333 11.7333H15.2888C15.7155 11.7333 15.9999 11.4489 15.9999 11.0222V0.711111C15.9999 0.284445 15.7155 0 15.2888 0Z" fill="white"/>
</svg>
