<svg width="16" height="16" viewBox="0 0 16 16" fill="none" xmlns="http://www.w3.org/2000/svg">
<g clip-path="url(#clip0)">
<path d="M12.0889 3.20001H0.711111C0.284444 3.20001 0 3.48446 0 3.91112V15.2889C0 15.7156 0.284444 16 0.711111 16H12.0889C12.5156 16 12.8 15.7156 12.8 15.2889V3.91112C12.8 3.48446 12.5156 3.20001 12.0889 3.20001ZM11.0222 13.8667C11.0222 14.08 10.88 14.2222 10.6667 14.2222H2.13333C1.92 14.2222 1.77778 14.08 1.77778 13.8667V5.33335C1.77778 5.12001 1.92 4.97779 2.13333 4.97779H10.6667C10.88 4.97779 11.0222 5.12001 11.0222 5.33335V13.8667Z" fill="#C8BC6C"/>
<path d="M15.2889 0H4.97777C4.55111 0 4.26666 0.284445 4.26666 0.711111V1.06667C4.26666 1.49333 4.55111 1.77778 4.97777 1.77778H13.8667C14.08 1.77778 14.2222 1.92 14.2222 2.13333V11.0222C14.2222 11.4489 14.5067 11.7333 14.9333 11.7333H15.2889C15.7156 11.7333 16 11.4489 16 11.0222V0.711111C16 0.284445 15.7156 0 15.2889 0Z" fill="#C8BC6C"/>
</g>
<defs>
<clipPath id="clip0">
<rect width="16" height="16" fill="white"/>
</clipPath>
</defs>
</svg>
