<svg width="10" height="10" viewBox="0 0 10 10" fill="none" xmlns="http://www.w3.org/2000/svg">
<path d="M7.08333 2.5H0.416667C0.166667 2.5 0 2.66667 0 2.91667V9.58333C0 9.83333 0.166667 10 0.416667 10H7.08333C7.33333 10 7.5 9.83333 7.5 9.58333V2.91667C7.5 2.66667 7.33333 2.5 7.08333 2.5ZM5.83333 8.125C5.83333 8.25 5.75 8.33333 5.625 8.33333H1.875C1.75 8.33333 1.66667 8.25 1.66667 8.125V4.375C1.66667 4.25 1.75 4.16667 1.875 4.16667H5.625C5.75 4.16667 5.83333 4.25 5.83333 4.375V8.125Z" fill="white"/>
<path d="M9.58333 0H2.91667C2.66667 0 2.5 0.166667 2.5 0.416667V1.25C2.5 1.5 2.66667 1.66667 2.91667 1.66667H8.125C8.25 1.66667 8.33333 1.75 8.33333 1.875V7.08333C8.33333 7.33333 8.5 7.5 8.75 7.5H9.58333C9.83333 7.5 10 7.33333 10 7.08333V0.416667C10 0.166667 9.83333 0 9.58333 0Z" fill="white"/>
</svg>
