<svg width="9" height="8" viewBox="0 0 9 8" fill="none" xmlns="http://www.w3.org/2000/svg">
<path d="M8.34738 0.584988C7.47726 -0.194891 6.0615 -0.194924 5.19193 0.584455L1.1079 4.23682C1.02116 4.3144 0.957191 4.40994 0.921559 4.51502L0.0321347 7.13945C-0.0467169 7.37214 0.0219807 7.6248 0.211448 7.79885C0.353381 7.92923 0.546196 8 0.743957 8C0.810126 8 0.876926 7.99207 0.942499 7.97576L3.945 7.23032C4.06856 7.19965 4.18118 7.14088 4.27194 7.05967L8.34741 3.41374C9.21754 2.63386 9.21753 1.36493 8.34738 0.584988ZM3.35934 5.99206L1.84881 6.3671L2.29086 5.06267L5.04654 2.59826L6.09877 3.54135L3.35934 5.99206ZM7.29593 2.47044L7.15181 2.59936L6.09977 1.65643L6.24341 1.52795C6.53345 1.26799 7.00537 1.26799 7.29541 1.52795C7.58545 1.78791 7.58545 2.21089 7.29593 2.47044Z" fill="#A79E65"/>
</svg>
