<svg width="17" height="12" viewBox="0 0 17 12" fill="none" xmlns="http://www.w3.org/2000/svg">
<mask id="mask0" mask-type="alpha" maskUnits="userSpaceOnUse" x="0" y="0" width="17" height="12">
<path d="M0 1.88C0 0.841704 0.841705 0 1.88 0H14.4057C15.444 0 16.2857 0.841705 16.2857 1.88V10.12C16.2857 11.1583 15.444 12 14.4057 12H1.88C0.841703 12 0 11.1583 0 10.12V1.88Z" fill="#012169"/>
</mask>
<g mask="url(#mask0)">
<path d="M-4.08789 0H20.4058V12.032H-4.08789V0Z" fill="#012169"/>
<path d="M-4.08789 0V1.3442L17.667 12.032H20.4058V10.6878L-1.34909 0H-4.08789ZM20.4058 0V1.3442L-1.34909 12.032H-4.08789V10.6878L17.667 0H20.4058Z" fill="white"/>
<path d="M6.11862 0V12.032H10.1993V0H6.11862ZM-4.08789 4.01145V8.02054H20.4058V4.01145H-4.08789Z" fill="white"/>
<path d="M-4.08789 4.81279V7.21919H20.4058V4.81279H-4.08789ZM6.93428 0V12.032H9.38365V0H6.93428ZM-4.08789 12.032L4.07588 8.02054H5.90334L-2.26282 12.032H-4.08789ZM-4.08789 0L4.07588 4.01145H2.25081L-4.08789 0.897699V0ZM10.417 4.01145L18.5808 0H20.4058L12.242 4.01145H10.417ZM20.4058 12.032L12.242 8.02054H14.0671L20.4058 11.1343V12.032Z" fill="#C8102E"/>
</g>
</svg>
