<svg width="2" height="11" viewBox="0 0 2 11" fill="none" xmlns="http://www.w3.org/2000/svg">
<path d="M0.384766 0.135742H1.61523L1.5332 6.72559H0.466797L0.384766 0.135742ZM1 10.0684C0.78125 10.0684 0.59668 9.99316 0.446289 9.84277C0.295898 9.69238 0.220703 9.50781 0.220703 9.28906C0.220703 9.06576 0.295898 8.88118 0.446289 8.73535C0.59668 8.58496 0.78125 8.50977 1 8.50977C1.22331 8.50977 1.40788 8.58496 1.55371 8.73535C1.7041 8.88118 1.7793 9.06576 1.7793 9.28906C1.7793 9.50781 1.7041 9.69238 1.55371 9.84277C1.40788 9.99316 1.22331 10.0684 1 10.0684Z" fill="#D1C881"/>
</svg>
