<svg width="140" height="43" viewBox="0 0 140 43" fill="none" xmlns="http://www.w3.org/2000/svg">
<path d="M134.834 42.1025H5.67796C2.83782 42.1025 0.511719 39.733 0.511719 36.8398V5.26305C0.511719 2.36983 2.83782 0.000263058 5.67796 0.000263058H134.834C137.674 0.000263058 140 2.36983 140 5.26305V36.8398C140 39.733 137.674 42.1025 134.834 42.1025Z" fill="#10131A"/>
<g opacity="0.2">
<path d="M49.5059 11.7146C49.5059 12.5674 49.2476 13.2503 48.7387 13.7596C48.1536 14.3634 47.3916 14.6673 46.4578 14.6673C45.5654 14.6673 44.8033 14.3583 44.1782 13.7494C43.5518 13.1316 43.2393 12.3733 43.2393 11.4657C43.2393 10.5581 43.5518 9.79983 44.1782 9.18709C44.8033 8.57308 45.5654 8.26416 46.4578 8.26416C46.9021 8.26416 47.3258 8.35479 47.73 8.5233C48.133 8.69308 48.461 8.92285 48.6987 9.20624L48.1588 9.74494C47.7442 9.26113 47.1798 9.02242 46.4578 9.02242C45.8069 9.02242 45.2425 9.24709 44.7633 9.70026C44.2893 10.1547 44.0516 10.7432 44.0516 11.4657C44.0516 12.1882 44.2893 12.7818 44.7633 13.2363C45.2425 13.6843 45.8069 13.9141 46.4578 13.9141C47.1488 13.9141 47.73 13.6843 48.1885 13.2312C48.4907 12.9312 48.6625 12.5176 48.7077 11.9891H46.4578V11.2512H49.4594C49.4956 11.4108 49.5059 11.5653 49.5059 11.7146Z" fill="white" stroke="white" stroke-width="0.16" stroke-miterlimit="10"/>
<path d="M54.268 9.15666H51.4486V11.097H53.9904V11.8348H51.4486V13.7752H54.268V14.527H50.6504V8.40479H54.268V9.15666Z" fill="white" stroke="white" stroke-width="0.16" stroke-miterlimit="10"/>
<path d="M57.6282 14.527H56.83V9.15666H55.1006V8.40479H59.3589V9.15666H57.6282V14.527Z" fill="white" stroke="white" stroke-width="0.16" stroke-miterlimit="10"/>
<path d="M62.4404 14.527V8.40479H63.2373V14.527H62.4404Z" fill="white" stroke="white" stroke-width="0.16" stroke-miterlimit="10"/>
<path d="M66.7698 14.527H65.978V9.15666H64.2422V8.40479H68.5056V9.15666H66.7698V14.527Z" fill="white" stroke="white" stroke-width="0.16" stroke-miterlimit="10"/>
<path d="M76.5668 13.7392C75.9559 14.3583 75.1991 14.6673 74.2963 14.6673C73.3883 14.6673 72.6315 14.3583 72.0206 13.7392C71.4109 13.1214 71.1074 12.3631 71.1074 11.4657C71.1074 10.5683 71.4109 9.81004 72.0206 9.1922C72.6315 8.57308 73.3883 8.26416 74.2963 8.26416C75.1939 8.26416 75.9508 8.57308 76.5617 9.19731C77.1765 9.82025 77.48 10.5734 77.48 11.4657C77.48 12.3631 77.1765 13.1214 76.5668 13.7392ZM72.6108 13.226C73.0706 13.6843 73.6298 13.9141 74.2963 13.9141C74.9576 13.9141 75.522 13.6843 75.9766 13.226C76.4351 12.7678 76.6676 12.1793 76.6676 11.4657C76.6676 10.7521 76.4351 10.1636 75.9766 9.70537C75.522 9.24709 74.9576 9.01731 74.2963 9.01731C73.6298 9.01731 73.0706 9.24709 72.6108 9.70537C72.1523 10.1636 71.9198 10.7521 71.9198 11.4657C71.9198 12.1793 72.1523 12.7678 72.6108 13.226Z" fill="white" stroke="white" stroke-width="0.16" stroke-miterlimit="10"/>
<path d="M78.6006 14.527V8.40479H79.5693L82.5812 13.1663H82.616L82.5812 11.9893V8.40479H83.3781V14.527H82.5463L79.3923 9.53069H79.3574L79.3923 10.7128V14.527H78.6006Z" fill="white" stroke="white" stroke-width="0.16" stroke-miterlimit="10"/>
</g>
<path d="M70.9119 23.4676C68.485 23.4676 66.5025 25.293 66.5025 27.8116C66.5025 30.3098 68.485 32.1544 70.9119 32.1544C73.3439 32.1544 75.3264 30.3098 75.3264 27.8116C75.3264 25.293 73.3439 23.4676 70.9119 23.4676ZM70.9119 30.4438C69.5803 30.4438 68.4347 29.3575 68.4347 27.8116C68.4347 26.2453 69.5803 25.1781 70.9119 25.1781C72.2435 25.1781 73.3942 26.2453 73.3942 27.8116C73.3942 29.3575 72.2435 30.4438 70.9119 30.4438ZM61.291 23.4676C58.859 23.4676 56.8817 25.293 56.8817 27.8116C56.8817 30.3098 58.859 32.1544 61.291 32.1544C63.7218 32.1544 65.7004 30.3098 65.7004 27.8116C65.7004 25.293 63.7218 23.4676 61.291 23.4676ZM61.291 30.4438C59.9581 30.4438 58.8087 29.3575 58.8087 27.8116C58.8087 26.2453 59.9581 25.1781 61.291 25.1781C62.6226 25.1781 63.7683 26.2453 63.7683 27.8116C63.7683 29.3575 62.6226 30.4438 61.291 30.4438ZM49.8427 24.799V26.6449H54.3024C54.172 27.6763 53.8232 28.4346 53.2885 28.9631C52.6376 29.6013 51.6237 30.3098 49.8427 30.3098C47.0981 30.3098 44.9489 28.1205 44.9489 25.4079C44.9489 22.6953 47.0981 20.506 49.8427 20.506C51.3267 20.506 52.4064 21.0792 53.2033 21.8221L54.5194 20.5213C53.4048 19.4695 51.9221 18.6614 49.8427 18.6614C46.079 18.6614 42.916 21.6881 42.916 25.4079C42.916 29.1277 46.079 32.1544 49.8427 32.1544C51.8769 32.1544 53.4048 31.4957 54.6059 30.26C55.8368 29.0435 56.2204 27.3329 56.2204 25.9517C56.2204 25.5228 56.1842 25.1284 56.1196 24.799H49.8427ZM96.6565 26.23C96.2936 25.2586 95.1738 23.4676 92.8929 23.4676C90.6327 23.4676 88.7509 25.2279 88.7509 27.8116C88.7509 30.2447 90.6133 32.1544 93.1099 32.1544C95.1286 32.1544 96.2936 30.9379 96.7728 30.2294L95.2746 29.2426C94.7747 29.9651 94.0941 30.4438 93.1099 30.4438C92.1322 30.4438 91.4309 30.0009 90.9814 29.1277L96.8593 26.724L96.6565 26.23ZM90.6637 27.6763C90.6133 26.0015 91.9798 25.1437 92.9588 25.1437C93.726 25.1437 94.3769 25.5228 94.5939 26.0653L90.6637 27.6763ZM85.8862 31.8901H87.8184V19.1248H85.8862V31.8901ZM82.7219 24.4352H82.6573C82.2233 23.9271 81.3955 23.4676 80.3467 23.4676C78.1459 23.4676 76.1337 25.3773 76.1337 27.8257C76.1337 30.26 78.1459 32.1544 80.3467 32.1544C81.3955 32.1544 82.2233 31.691 82.6573 31.1676H82.7219V31.7906C82.7219 33.4513 81.8243 34.3436 80.3764 34.3436C79.1959 34.3436 78.4636 33.5011 78.1614 32.7927L76.4811 33.4858C76.9654 34.6372 78.2479 36.0542 80.3764 36.0542C82.6418 36.0542 84.5533 34.7368 84.5533 31.5314V23.7318H82.7219V24.4352ZM80.512 30.4438C79.1804 30.4438 78.0658 29.3422 78.0658 27.8257C78.0658 26.2951 79.1804 25.1781 80.512 25.1781C81.8243 25.1781 82.8588 26.2951 82.8588 27.8257C82.8588 29.3422 81.8243 30.4438 80.512 30.4438ZM105.703 19.1248H101.081V31.8901H103.008V27.0534H105.703C107.843 27.0534 109.942 25.5228 109.942 23.0885C109.942 20.6554 107.838 19.1248 105.703 19.1248ZM105.753 25.2777H103.008V20.9005H105.753C107.192 20.9005 108.013 22.0813 108.013 23.0885C108.013 24.0765 107.192 25.2777 105.753 25.2777ZM117.665 23.4433C116.273 23.4433 114.825 24.051 114.229 25.3977L115.94 26.1062C116.308 25.3977 116.984 25.1679 117.7 25.1679C118.7 25.1679 119.713 25.7615 119.729 26.8095V26.9436C119.38 26.7444 118.634 26.4496 117.715 26.4496C115.874 26.4496 113.997 27.4516 113.997 29.3218C113.997 31.0323 115.506 32.134 117.201 32.134C118.498 32.134 119.214 31.5557 119.663 30.883H119.729V31.8697H121.59V26.9729C121.59 24.7097 119.88 23.4433 117.665 23.4433ZM117.433 30.4387C116.802 30.4387 115.924 30.1298 115.924 29.3575C115.924 28.3695 117.019 27.9903 117.967 27.9903C118.816 27.9903 119.214 28.1754 119.729 28.4193C119.578 29.6013 118.548 30.4387 117.433 30.4387ZM128.371 23.7229L126.156 29.2567H126.09L123.8 23.7229H121.722L125.163 31.4561L123.199 35.7593H125.213L130.515 23.7229H128.371ZM111.001 31.8901H112.933V19.1248H111.001V31.8901Z" fill="white"/>
<path d="M11.2936 8.95247C10.9901 9.26649 10.8145 9.75541 10.8145 10.3886V32.973C10.8145 33.6062 10.9901 34.0951 11.2936 34.4091L11.3685 34.478L24.1731 21.8276V21.5289L11.3685 8.87843L11.2936 8.95247Z" fill="url(#paint0_linear)"/>
<path d="M28.4363 26.0464L24.1729 21.8274V21.5287L28.4415 17.3098L28.537 17.3647L33.5922 20.2075C35.0349 21.0143 35.0349 22.3419 33.5922 23.1538L28.537 25.9915L28.4363 26.0464Z" fill="url(#paint1_linear)"/>
<path d="M28.5366 25.9913L24.1724 21.6779L11.293 34.4087C11.7721 34.9066 12.5535 34.9666 13.4421 34.4687L28.5366 25.9913Z" fill="url(#paint2_linear)"/>
<path d="M28.5366 17.3648L13.4421 8.88736C12.5535 8.39462 11.7721 8.45461 11.293 8.95246L24.1724 21.6782L28.5366 17.3648Z" fill="url(#paint3_linear)"/>
<defs>
<linearGradient id="paint0_linear" x1="23.0362" y1="33.2082" x2="5.89872" y2="15.869" gradientUnits="userSpaceOnUse">
<stop stop-color="#00A0FF"/>
<stop offset="0.0066" stop-color="#00A1FF"/>
<stop offset="0.2601" stop-color="#00BEFF"/>
<stop offset="0.5122" stop-color="#00D2FF"/>
<stop offset="0.7604" stop-color="#00DFFF"/>
<stop offset="1" stop-color="#00E3FF"/>
</linearGradient>
<linearGradient id="paint1_linear" x1="35.4708" y1="21.6767" x2="10.4694" y2="21.6767" gradientUnits="userSpaceOnUse">
<stop stop-color="#FFE000"/>
<stop offset="0.4087" stop-color="#FFBD00"/>
<stop offset="0.7754" stop-color="#FFA500"/>
<stop offset="1" stop-color="#FF9C00"/>
</linearGradient>
<linearGradient id="paint2_linear" x1="26.1635" y1="19.333" x2="2.92369" y2="-4.18032" gradientUnits="userSpaceOnUse">
<stop stop-color="#FF3A44"/>
<stop offset="1" stop-color="#C31162"/>
</linearGradient>
<linearGradient id="paint3_linear" x1="8.05095" y1="41.9228" x2="18.4286" y2="31.4231" gradientUnits="userSpaceOnUse">
<stop stop-color="#32A071"/>
<stop offset="0.0685" stop-color="#2DA771"/>
<stop offset="0.4762" stop-color="#15CF74"/>
<stop offset="0.8009" stop-color="#06E775"/>
<stop offset="1" stop-color="#00F076"/>
</linearGradient>
</defs>
</svg>
