<svg width="7" height="9" viewBox="0 0 7 9" fill="none" xmlns="http://www.w3.org/2000/svg">
<path d="M2.75843 8.99995C2.67175 8.99993 2.60015 8.97076 2.54379 8.91248C2.4874 8.85417 2.45917 8.78017 2.45917 8.69052V4.22422L0.585543 4.22436C0.420873 4.22419 0.282131 4.16608 0.169297 4.0494C0.0564623 3.93272 0.000135339 3.78915 0 3.61893C9.02263e-05 3.44841 0.05653 3.30491 0.169297 3.18829L3.08373 0.174854C3.19648 0.0583067 3.3352 0 3.50006 0C3.66482 0.000133514 3.8037 0.0583735 3.91645 0.174954L6.83086 3.18836C6.94364 3.30497 6.9999 3.44851 7 3.61883C6.99997 3.78922 6.94364 3.93269 6.83086 4.04927C6.71811 4.16588 6.57926 4.22419 6.4144 4.22432L4.54104 4.22416L4.54091 8.69057C4.54088 8.78021 4.51282 8.85405 4.45636 8.91243C4.3999 8.97081 4.32846 8.99976 4.24165 9L2.75843 8.99995Z" fill="#7FDB6F"/>
</svg>
