<svg width="7" height="9" viewBox="0 0 7 9" fill="none" xmlns="http://www.w3.org/2000/svg">
<path d="M2.75855 8.99898C2.67187 8.99895 2.60027 8.96979 2.54391 8.9115C2.48752 8.85319 2.45929 8.77919 2.45929 8.68954V4.22325L0.585665 4.22338C0.420995 4.22321 0.282253 4.16511 0.169419 4.04843C0.0565844 3.93175 0.00025741 3.78818 0.00012207 3.61795C0.000212297 3.44743 0.056652 3.30393 0.169419 3.18732L3.08385 0.173878C3.1966 0.0573311 3.33532 -0.000976562 3.50018 -0.000976562C3.66494 -0.000843048 3.80382 0.0573969 3.91657 0.173978L6.83098 3.18738C6.94376 3.304 7.00003 3.44753 7.00012 3.61785C7.00009 3.78824 6.94376 3.93171 6.83098 4.04829C6.71823 4.16491 6.57938 4.22321 6.41452 4.22335L4.54117 4.22318L4.54104 8.68959C4.541 8.77924 4.51294 8.85307 4.45648 8.91145C4.40003 8.96983 4.32859 8.99879 4.24178 8.99902L2.75855 8.99898Z" fill="#48A43E"/>
</svg>
