<svg width="159" height="29" viewBox="0 0 159 29" fill="none" xmlns="http://www.w3.org/2000/svg">
<path d="M12 3.93244C13.7257 3.16281 26.2949 4.75173 29 5C21.9808 -1.05777 12 3.93244 12 3.93244Z" fill="#FCF092"/>
<path d="M29 16.3267C27.8906 11.3772 24.9176 9.96628 24.9176 9.96628C23.2758 9.18242 16.42 9.13763 14.8447 9.74232C13.2694 10.3694 13.4247 11.9595 13.1585 12.7434C16.6862 9.56315 22.6989 13.8408 22.2551 16.3267C22.2551 16.3267 22.2551 16.3267 22.2551 16.3491C21.5452 19.9101 18.3502 22.508 14.5119 22.3512C10.2963 22.1945 6.70205 18.7007 6.96829 11.1757C7.07923 8.35377 8.89856 5.50949 11.4723 3.74021L11.4944 3.71782C11.4944 3.71782 11.4944 3.71782 11.5166 3.69542C12.1601 3.22511 12.8922 2.84438 13.6688 2.57563C14.2456 2.35167 14.8225 2.1949 15.4215 2.08292C18.5055 1.43343 21.7892 1.74698 23.0761 1.90375C19.1712 0.336034 15.9984 -0.111884 13.3582 0.0224913C11.4944 1.0975 8.98731 3.02354 7.56734 6.27095C7.56734 6.27095 7.87796 3.00115 9.78604 0.649577C7.9889 1.18708 6.52455 1.99333 5.30427 2.75479C5.19333 2.84438 5.10458 2.93396 4.99365 3.00115C4.94927 4.3673 4.99365 6.31574 5.17114 9.16003C4.83834 8.7345 4.03961 6.04699 3.83992 4.07615C2.53089 5.39751 1.62122 6.83085 0.999984 8.30898C1.28842 9.65274 1.90965 11.4892 3.28525 13.1465C2.93025 12.9673 1.24404 11.758 0.356561 10.3022C-0.97466 16.0356 1.62122 22.1945 4.83834 25.2627C6.28049 25.0387 8.63232 24.546 9.96354 23.583C9.91917 23.7398 8.45482 25.5538 6.39143 26.4945C11.8051 29.7643 17.9287 29.182 19.9921 28.3533C29.6434 24.8596 26.2266 13.8184 25.4723 12.5642C26.1601 12.3402 27.8463 14.2215 29 16.3267ZM22.6989 11.5788C21.5674 11.6684 21.1236 11.1757 20.9905 10.7053C20.9683 10.6606 23.9414 10.6158 23.9414 10.6158C23.9414 10.6158 23.8082 11.4892 22.6989 11.5788Z" fill="url(#paint0_linear)"/>
<path d="M156.378 11.8L153.219 19.1308C153.544 19.2653 153.925 19.3326 154.384 19.3326C154.899 19.3326 155.359 19.2317 155.751 19.0187C156.143 18.8058 156.479 18.4022 156.737 17.7857C156.995 17.1692 157.129 16.2837 157.129 15.1291C157.14 13.6047 156.883 12.4949 156.378 11.8ZM154.384 10.9256C153.577 10.9256 152.916 11.2171 152.412 11.7887C151.897 12.3716 151.65 13.4813 151.65 15.1291C151.65 16.5079 151.841 17.5279 152.244 18.1893L155.303 11.0489C155 10.9593 154.698 10.9256 154.384 10.9256ZM159 15.1291C159 17.0683 158.619 18.5143 157.868 19.4783C157.107 20.4423 155.953 20.9131 154.384 20.9131C153.723 20.9131 153.118 20.8234 152.569 20.6329L151.83 22.3591H150.429L151.438 20.0052C150.328 19.0748 149.779 17.4494 149.779 15.1291C149.779 11.2731 151.314 9.34512 154.384 9.34512C154.955 9.34512 155.471 9.41237 155.941 9.54688L156.602 8H158.014L157.118 10.0849C158.373 10.9593 159 12.6407 159 15.1291ZM137.287 20.7113V9.49084H139.158V20.7001H137.287V20.7113ZM111.093 12.0129C110.499 11.3628 109.57 11.0377 108.326 11.0377H106.421V19.142H108.326C109.581 19.142 110.499 18.817 111.093 18.1668C111.687 17.5167 111.989 16.4966 111.989 15.0843C111.978 13.6943 111.687 12.6631 111.093 12.0129ZM108.505 20.7113H104.573V9.49084H108.505C112.09 9.49084 113.883 11.3516 113.883 15.0843C113.883 18.8394 112.09 20.7113 108.505 20.7113ZM87.1398 20.7113V9.49084H89.0108V19.1308H94.3662V20.7113H87.1398ZM73.7963 11.912C73.2585 11.2507 72.4182 10.9144 71.2866 10.9144C70.1551 10.9144 69.326 11.2507 68.7882 11.912C68.2504 12.5734 67.9816 13.6383 67.9816 15.1067C67.9816 16.5751 68.2504 17.64 68.7882 18.3013C69.326 18.9627 70.1551 19.2878 71.2866 19.2878C72.4294 19.2878 73.2697 18.9515 73.7963 18.2901C74.3228 17.6288 74.5917 16.5527 74.5917 15.0843C74.6029 13.6383 74.334 12.5734 73.7963 11.912ZM75.1855 19.4335C74.3004 20.4199 73.0008 20.9019 71.2978 20.9019C69.6173 20.9019 68.3289 20.4199 67.4326 19.4447C66.5363 18.4695 66.0881 17.0235 66.0881 15.1067C66.0881 13.2011 66.5251 11.7551 67.4214 10.7799C68.3065 9.79349 69.5949 9.31149 71.2978 9.31149C72.9896 9.31149 74.278 9.79349 75.1855 10.7687C76.0818 11.7439 76.5299 13.1899 76.5299 15.1179C76.5187 17.0123 76.0706 18.4583 75.1855 19.4335ZM51.2657 16.3173V14.7368H55.4671V19.8819C54.1563 20.5656 52.767 20.9019 51.3105 20.9019C49.5852 20.9019 48.2743 20.4199 47.3668 19.4559C46.4593 18.4919 46 17.0347 46 15.0843C46 13.1451 46.4593 11.6991 47.3668 10.7351C48.2743 9.77107 49.5852 9.30028 51.2993 9.30028C52.6326 9.30028 53.8762 9.55809 55.0413 10.0737V11.856C54.3579 11.5309 53.7417 11.2843 53.1927 11.105C52.6438 10.9256 52.0836 10.8472 51.5346 10.8472C50.291 10.8472 49.3723 11.1834 48.7673 11.856C48.1623 12.5286 47.871 13.6047 47.871 15.0843C47.871 16.5639 48.1735 17.64 48.7673 18.3126C49.3611 18.9851 50.2686 19.3214 51.4786 19.3214C52.2965 19.3214 53.0135 19.2093 53.6185 18.9851V16.3173H51.2657Z" fill="url(#paint1_linear)"/>
<path d="M71.4094 14.2212C71.9248 14.2212 72.3393 14.6471 72.3393 15.174C72.3393 15.7008 71.9248 16.1268 71.4094 16.1268C70.894 16.1268 70.4795 15.7008 70.4795 15.174C70.4795 14.6471 70.894 14.2212 71.4094 14.2212Z" fill="#BC9C52"/>
<path d="M124.257 14.2212C124.772 14.2212 125.187 14.6471 125.187 15.174C125.187 15.7008 124.772 16.1268 124.257 16.1268C123.742 16.1268 123.327 15.7008 123.327 15.174C123.327 14.6471 123.742 14.2212 124.257 14.2212Z" fill="#DEC974"/>
<defs>
<linearGradient id="paint0_linear" x1="14.425" y1="29.0009" x2="14.2696" y2="0.00182211" gradientUnits="userSpaceOnUse">
<stop stop-color="#B6923D"/>
<stop offset="1" stop-color="#FCF193"/>
</linearGradient>
<linearGradient id="paint1_linear" x1="46" y1="8" x2="159" y2="8" gradientUnits="userSpaceOnUse">
<stop stop-color="#AF8B45"/>
<stop offset="1" stop-color="#F2E288"/>
</linearGradient>
</defs>
</svg>
