<svg width="16" height="14" viewBox="0 0 16 14" fill="none" xmlns="http://www.w3.org/2000/svg">
<path d="M15.2 11.9002H0.8C0.358405 11.9002 0 12.2138 0 12.6002C0 12.9866 0.358405 13.3002 0.8 13.3002H15.2C15.6416 13.3002 16 12.9866 16 12.6002C16 12.2138 15.6416 11.9002 15.2 11.9002ZM0.8 2.1002H15.2C15.6416 2.1002 16 1.78661 16 1.4002C16 1.01378 15.6416 0.700195 15.2 0.700195H0.8C0.358405 0.700218 0 1.0138 0 1.40022C0 1.78661 0.358405 2.1002 0.8 2.1002ZM12.2 6.3002H0.8C0.358405 6.3002 0 6.6138 0 7.00022C0 7.38664 0.358405 7.70022 0.8 7.70022H12.2C12.6416 7.70022 13 7.38661 13 7.00022C13 6.61382 12.6416 6.3002 12.2 6.3002Z" fill="#E5D782"/>
</svg>
