<svg width="47" height="47" viewBox="0 0 47 47" fill="none" xmlns="http://www.w3.org/2000/svg">
<path d="M47 26.4605C45.2021 18.4389 40.3837 16.1522 40.3837 16.1522C37.7228 14.8819 26.6117 14.8093 24.0586 15.7893C21.5056 16.8056 21.7573 19.3827 21.3258 20.6531C27.0432 15.4989 36.7879 22.4316 36.0687 26.4605C36.0687 26.4605 36.0687 26.4605 36.0687 26.4968C34.918 32.268 29.74 36.4785 23.5193 36.2244C16.6872 35.9703 10.8619 30.308 11.2934 18.1123C11.4732 13.5389 14.4218 8.92918 18.593 6.06173L18.6289 6.02543C18.6289 6.02543 18.6289 6.02543 18.6649 5.98913C19.7077 5.2269 20.8943 4.60985 22.1528 4.17429C23.0878 3.81132 24.0227 3.55724 24.9935 3.37576C29.9917 2.32315 35.3136 2.83131 37.3991 3.08539C31.0705 0.544607 25.9285 -0.18133 21.6494 0.0364514C18.6289 1.7787 14.5656 4.90023 12.2643 10.1633C12.2643 10.1633 12.7677 4.86393 15.8601 1.05276C12.9475 1.92389 10.5743 3.23057 8.59657 4.46467C8.41678 4.60985 8.27295 4.75504 8.09315 4.86393C8.02124 7.07804 8.09315 10.2359 8.38082 14.8456C7.84145 14.1559 6.54695 9.8003 6.22332 6.60618C4.10179 8.74769 2.6275 11.0707 1.62066 13.4663C2.08812 15.6441 3.09495 18.6204 5.32437 21.3064C4.74903 21.016 2.01621 19.056 0.577875 16.6967C-1.57962 25.9887 2.6275 35.9703 7.84145 40.943C10.1787 40.58 13.9903 39.7815 16.1478 38.2207C16.0759 38.4748 13.7026 41.4148 10.3585 42.9393C19.1323 48.2386 29.0568 47.2949 32.4009 45.9519C48.0428 40.2896 42.5052 22.3953 41.2826 20.3627C42.3973 19.9997 45.1302 23.0486 47 26.4605ZM36.7879 18.7656C34.954 18.9108 34.2348 18.1123 34.0191 17.35C33.9831 17.2774 38.8015 17.2049 38.8015 17.2049C38.8015 17.2049 38.5858 18.6204 36.7879 18.7656Z" fill="url(#paint0_linear)"/>
<defs>
<linearGradient id="paint0_linear" x1="23.3785" y1="47.0014" x2="23.1266" y2="0.00295308" gradientUnits="userSpaceOnUse">
<stop stop-color="#B6923D"/>
<stop offset="1" stop-color="#FCF193"/>
</linearGradient>
</defs>
</svg>
