<svg version="1.1" id="Слой_1" xmlns="http://www.w3.org/2000/svg" xmlns:xlink="http://www.w3.org/1999/xlink" x="0px" y="0px"
	 viewBox="0 0 18 22" style="enable-background:new 0 0 18 22;" xml:space="preserve">
<style type="text/css">
	.st0{fill:#fff;}
</style>
<path class="st0" d="M0,22h7.2c0.8,0,1.5-0.6,1.5-1.4c0-0.8-0.7-1.4-1.5-1.4H2.9V2.8h4.3c0.8,0,1.5-0.6,1.5-1.4C8.7,0.6,8,0,7.2,0H0
	V22z"/>
<path class="st0" d="M17.8,11.8c0,0,0.1-0.1,0.1-0.1c0,0,0-0.1,0.1-0.1c0-0.1,0-0.1,0.1-0.2c0,0,0-0.1,0-0.1c0-0.1,0-0.2,0-0.3l0,0
	c0-0.1,0-0.2,0-0.3c0,0,0-0.1,0-0.1c0-0.1,0-0.1-0.1-0.2c0,0,0-0.1-0.1-0.1c0,0,0-0.1-0.1-0.1c0,0-0.1-0.1-0.1-0.1
	c0,0,0-0.1-0.1-0.1l-4.7-4.8c-0.6-0.6-1.5-0.6-2.1-0.1c-0.6,0.5-0.6,1.4-0.1,2l2.4,2.5H6.5C5.7,9.6,5,10.2,5,11
	c0,0.8,0.7,1.4,1.5,1.4h6.7l-2.4,2.5c-0.6,0.6-0.5,1.5,0.1,2c0.6,0.5,1.5,0.5,2.1-0.1l0,0l4.7-4.8c0,0,0-0.1,0.1-0.1
	C17.7,11.8,17.7,11.8,17.8,11.8z"/>
</svg>