<svg width="14" height="14" viewBox="0 0 14 14" fill="none" xmlns="http://www.w3.org/2000/svg">
<path d="M13.7871 12.7518L10.3359 9.28631C11.2233 8.26788 11.7095 6.98648 11.7095 5.65249C11.7095 2.53576 9.08299 0 5.85474 0C2.62649 0 0 2.53576 0 5.65249C0 8.76923 2.62649 11.305 5.85474 11.305C7.06667 11.305 8.22158 10.9521 9.20899 10.2821L12.6864 13.7739C12.8318 13.9196 13.0273 14 13.2368 14C13.4351 14 13.6232 13.927 13.766 13.7943C14.0694 13.5124 14.0791 13.045 13.7871 12.7518ZM5.85474 1.47456C8.24092 1.47456 10.1821 3.34873 10.1821 5.65249C10.1821 7.95625 8.24092 9.83043 5.85474 9.83043C3.46855 9.83043 1.52732 7.95625 1.52732 5.65249C1.52732 3.34873 3.46855 1.47456 5.85474 1.47456Z" fill="#686D7A"/>
</svg>
