<svg width="13" height="10" viewBox="0 0 13 10" fill="none" xmlns="http://www.w3.org/2000/svg">
<path d="M12.7652 1.30513L11.6245 0.222804C11.4681 0.0742866 11.2779 0 11.0543 0C10.8306 0 10.6403 0.0742866 10.4839 0.222804L4.98193 5.45149L2.51611 3.10373C2.35954 2.95516 2.16944 2.88095 1.94586 2.88095C1.72213 2.88095 1.53203 2.95516 1.37546 3.10373L0.234834 4.18608C0.0782586 4.33463 0 4.51506 0 4.72733C0 4.93943 0.0782586 5.12003 0.234834 5.26855L3.27091 8.14939L4.41162 9.23171C4.56811 9.38034 4.75826 9.45455 4.98193 9.45455C5.20552 9.45455 5.39567 9.38015 5.55225 9.23171L6.69293 8.14939L12.7652 2.38754C12.9216 2.23897 13 2.05856 13 1.84629C13.0001 1.63414 12.9216 1.4537 12.7652 1.30513Z" fill="#686D7A"/>
</svg>
