<svg width="14" height="12" viewBox="0 0 14 12" fill="none" xmlns="http://www.w3.org/2000/svg">
<path d="M0.161538 6.53843C0.0538462 6.43074 0 6.2692 0 6.16151C0 6.05382 0.0538462 5.89228 0.161538 5.78459L0.915385 5.03074C1.13077 4.81536 1.45385 4.81536 1.66923 5.03074L1.72308 5.08459L4.68462 8.26151C4.79231 8.3692 4.95385 8.3692 5.06154 8.26151L12.2769 0.776895H12.3308C12.5462 0.56151 12.8692 0.56151 13.0846 0.776895L13.8385 1.53074C14.0538 1.74613 14.0538 2.0692 13.8385 2.28459L5.22308 11.223C5.11538 11.3307 5.00769 11.3846 4.84615 11.3846C4.68462 11.3846 4.57692 11.3307 4.46923 11.223L0.269231 6.69997L0.161538 6.53843Z" fill="#D1C174"/>
</svg>
