<svg width="7" height="9" viewBox="0 0 7 9" fill="none" xmlns="http://www.w3.org/2000/svg">
<path d="M2.75855 -0.000929917C2.67187 -0.000906594 2.60027 0.0282602 2.54391 0.0865472C2.48752 0.144857 2.45929 0.218857 2.45929 0.308503V4.7748L0.585665 4.77467C0.420995 4.77483 0.282253 4.83294 0.169419 4.94962C0.0565844 5.0663 0.00025741 5.20987 0.00012207 5.38009C0.000212297 5.55062 0.056652 5.69412 0.169419 5.81073L3.08385 8.82417C3.1966 8.94072 3.33532 8.99902 3.50018 8.99902C3.66494 8.99889 3.80382 8.94065 3.91657 8.82407L6.83098 5.81067C6.94376 5.69405 7.00003 5.55052 7.00012 5.38019C7.00009 5.2098 6.94376 5.06634 6.83098 4.94975C6.71823 4.83314 6.57938 4.77483 6.41452 4.7747L4.54117 4.77487L4.54104 0.308457C4.541 0.218811 4.51294 0.144974 4.45648 0.0865938C4.40003 0.0282136 4.32859 -0.000740003 4.24178 -0.000976562L2.75855 -0.000929917Z" fill="#A42A2A"/>
</svg>
