<svg width="16" height="20" viewBox="0 0 16 20" fill="none" xmlns="http://www.w3.org/2000/svg">
<path d="M0.0510049 10.7003C-0.071136 9.64172 0.030648 8.61981 0.307501 7.67525C1.22763 4.53623 4.11422 2.22777 7.53824 2.18705V0.135087C7.53824 0.021089 7.68074 -0.0399815 7.77438 0.0292317L11.9964 3.13161C12.0656 3.18454 12.0656 3.29039 11.9964 3.33925L7.77845 6.44163C7.68074 6.51084 7.54231 6.44977 7.54231 6.33577V4.28788C5.29085 4.32452 3.36917 5.71285 2.54268 7.67525C2.22918 8.41624 2.0704 9.23458 2.11519 10.0936C2.17626 11.2743 2.62003 12.3614 3.32031 13.2408C3.69487 13.709 3.6053 14.393 3.12081 14.7472C2.66075 15.0851 2.01747 14.9915 1.66326 14.5436C0.796064 13.4607 0.217931 12.1415 0.0510049 10.7003ZM12.2407 6.75919C12.945 7.63454 13.3888 8.72566 13.4458 9.90636C13.4906 10.7695 13.3277 11.5878 13.0183 12.3247C12.1918 14.2871 10.2701 15.6795 8.01866 15.7121V13.6642C8.01866 13.5502 7.87616 13.4892 7.78252 13.5584L3.56052 16.6607C3.49131 16.7137 3.49131 16.8195 3.56052 16.8684L7.77845 19.9708C7.87616 20.04 8.01459 19.9789 8.01459 19.8649V17.8129C11.4386 17.7763 14.3293 15.4678 15.2453 12.3247C15.5222 11.3802 15.6199 10.3583 15.5018 9.29972C15.339 7.85846 14.7608 6.53934 13.8936 5.45636C13.5354 5.00851 12.8962 4.91487 12.4361 5.25279C11.9557 5.607 11.8661 6.29099 12.2407 6.75919Z" fill="#F7E5B5"/>
</svg>
