<svg width="13" height="16" viewBox="0 0 13 16" fill="none" xmlns="http://www.w3.org/2000/svg">
<path d="M12.3568 0.18616C12.2326 0.062019 12.0855 0 11.9157 0H0.62726C0.4573 0 0.310301 0.062019 0.18616 0.18616C0.0620876 0.310232 0 0.457231 0 0.627088V8.1527C0 8.71458 0.109348 9.27144 0.328217 9.8235C0.546982 10.3755 0.818122 10.8655 1.14153 11.2934C1.46495 11.7214 1.85031 12.1379 2.29779 12.5429C2.74534 12.9481 3.15851 13.2842 3.53735 13.5523C3.91619 13.8201 4.31143 14.0733 4.72298 14.3115C5.13453 14.5498 5.42695 14.7118 5.6 14.7966C5.77308 14.8816 5.91191 14.9469 6.01639 14.9925C6.09485 15.0317 6.17969 15.0515 6.27126 15.0515C6.36293 15.0515 6.44767 15.0317 6.5262 14.9925C6.63061 14.9469 6.76944 14.8816 6.94245 14.7966C7.11547 14.7118 7.40802 14.5498 7.81961 14.3115C8.23092 14.0733 8.6263 13.8201 9.00507 13.5523C9.38408 13.2842 9.79718 12.9481 10.2448 12.5429C10.692 12.1379 11.0775 11.7214 11.4009 11.2934C11.7243 10.8655 11.9953 10.3755 12.2145 9.8235C12.4334 9.27144 12.5427 8.71458 12.5427 8.1527V0.627088C12.5427 0.457128 12.4806 0.310266 12.3568 0.18616ZM10.6613 8.1527C10.6613 9.30247 9.89362 10.4783 8.35849 11.6803C7.74441 12.1636 7.04864 12.6112 6.2713 13.0228V1.88127H10.6613V8.1527Z" fill="#D1C881"/>
</svg>
