<svg width="26" height="24" viewBox="0 0 26 24" fill="none" xmlns="http://www.w3.org/2000/svg">
<path d="M25.7698 20.9312L14.4745 1.36401C13.8197 0.230225 12.1803 0.230225 11.5255 1.36401L0.230236 20.9312C-0.424487 22.065 0.395247 23.4862 1.70469 23.4862H24.2953C25.6047 23.4862 26.4245 22.065 25.7698 20.9312ZM13.016 7.38959C13.7399 7.38959 14.3254 7.99108 14.3041 8.715L14.0912 16.1458C14.0752 16.7314 13.5962 17.1945 13.0106 17.1945C12.4251 17.1945 11.946 16.726 11.9301 16.1458L11.7225 8.715C11.7065 7.99108 12.2867 7.38959 13.016 7.38959ZM13 20.83C12.2601 20.83 11.6586 20.2285 11.6586 19.4887C11.6586 18.7488 12.2601 18.1473 13 18.1473C13.7399 18.1473 14.3414 18.7488 14.3414 19.4887C14.3414 20.2285 13.7399 20.83 13 20.83Z" fill="red"/>
</svg>