<svg width="17" height="17" viewBox="0 0 17 17" fill="none" xmlns="http://www.w3.org/2000/svg">
<rect width="17" height="17" rx="4" fill="url(#paint0_linear)"/>
<path d="M7.91018 10.3227H11.9147V12.3146H9.55188V14H7.49713V12.3668H5.03282C5.03282 11.7017 4.93131 11.04 5.08533 10.4272C5.13784 10.1207 5.49488 9.81428 5.75391 9.50784C6.52401 8.58851 7.2941 7.66918 8.1167 6.74986C8.42474 6.39118 8.73278 6.08474 9.09332 5.67731H5.24285V3.68543H7.50063V2H9.50287V3.6332H11.9672C11.9672 4.29832 12.0687 4.95995 11.9147 5.57284C11.8622 5.87928 11.5051 6.18572 11.2461 6.49217C10.476 7.41149 9.7059 8.33082 8.8833 9.25015C8.57526 9.60882 8.26722 9.96402 7.91018 10.3227Z" fill="black"/>
<defs>
<linearGradient id="paint0_linear" x1="2.6828" y1="14.3171" x2="14.4171" y2="2.58284" gradientUnits="userSpaceOnUse">
<stop stop-color="#CF8724"/>
<stop offset="1" stop-color="#FDCE58"/>
</linearGradient>
</defs>
</svg>
