<svg width="30" height="30" viewBox="0 0 30 30" fill="none" xmlns="http://www.w3.org/2000/svg">
<circle cx="15" cy="15" r="15" fill="#FF002E"/>
<g clip-path="url(#clip0)">
<path d="M9.15414 21.0534L9.20961 21.1092C10.5065 22.3714 12.6478 23.125 14.9384 23.125C16.5531 23.125 18.1477 22.7196 19.4283 21.9834C20.6565 21.2774 21.5023 20.3285 21.8099 19.3116H21.8104C21.8242 19.2611 21.8417 19.2116 21.8625 19.1635C21.8892 19.0979 21.9229 19.0193 21.9468 18.9635C21.9589 18.9353 21.9682 18.914 21.9718 18.9048C22.4853 17.5791 22.666 16.1479 22.4983 14.736C22.3174 13.2523 21.7546 11.9775 20.8708 11.0495C20.7362 10.9096 20.592 10.76 20.4412 10.6184C20.4274 11.2356 20.4348 12.2719 20.5132 13.3641C20.5465 13.6223 20.536 13.8843 20.482 14.1391C20.3946 14.5884 20.1951 15.0084 19.9021 15.3599C19.3867 15.9693 18.6444 16.3415 17.8476 16.3898C17.0869 16.4389 16.3733 16.1928 15.8382 15.697C15.6323 15.5049 15.457 15.2825 15.3183 15.0374C14.8249 14.1553 14.7734 13.103 15.1754 12.148C15.1775 12.1428 15.1798 12.1378 15.1822 12.1328C15.2401 12.0132 15.2957 11.8909 15.3575 11.755C15.3596 11.7503 15.3619 11.7456 15.3643 11.741L15.964 10.5712C16.4001 9.70371 16.5376 8.75934 16.372 7.76627C16.2529 7.05139 15.9742 6.31844 15.5604 5.625C15.0787 6.16653 14.6041 6.72837 14.1425 7.27474C13.4601 8.08235 12.7544 8.91771 12.019 9.69565C11.9111 9.81418 11.8173 9.91948 11.7324 10.0174C11.6625 10.098 11.558 10.1399 11.4517 10.1298C11.3454 10.1196 11.2504 10.0588 11.197 9.96625C10.7976 9.27571 10.2519 8.76112 9.78001 8.4073C9.56601 9.02237 9.3641 9.65098 9.16785 10.2625C8.8716 11.1848 8.56536 12.1386 8.21493 13.0554C7.4815 15.0825 7.27766 16.6862 7.57342 18.1021C7.8137 19.2145 8.36152 20.2369 9.15414 21.0534Z" fill="white"/>
<path d="M22.4106 19.2402C22.4244 19.2636 22.435 19.2885 22.4427 19.3144C22.4352 19.2885 22.4244 19.2635 22.4106 19.2402Z" fill="white"/>
</g>
<defs>
<clipPath id="clip0">
<rect width="17.5" height="17.5" fill="white" transform="translate(6.25 5.625)"/>
</clipPath>
</defs>
</svg>
