<svg width="42" height="42" viewBox="0 0 42 42" fill="none" xmlns="http://www.w3.org/2000/svg">
<mask id="mask0" mask-type="alpha" maskUnits="userSpaceOnUse" x="0" y="0" width="42" height="42">
<rect width="42" height="42" rx="10" fill="url(#paint0_linear)"/>
</mask>
<g mask="url(#mask0)">
<rect width="42" height="42" rx="10" fill="url(#paint1_linear)"/>
<path d="M18.9829 11.2632C20.6342 10.5267 32.6617 12.0472 35.2502 12.2848C28.5335 6.48809 18.9829 11.2632 18.9829 11.2632Z" fill="#FCF092"/>
<path d="M35.25 23.123C34.1885 18.3868 31.3436 17.0367 31.3436 17.0367C29.7725 16.2866 23.2122 16.2438 21.7048 16.8224C20.1974 17.4224 20.3461 18.944 20.0913 19.6941C23.467 16.6509 29.2205 20.7442 28.7959 23.123C28.7959 23.123 28.7959 23.123 28.7959 23.1444C28.1165 26.5519 25.0593 29.0378 21.3864 28.8878C17.3525 28.7378 13.9132 25.3946 14.1679 18.1939C14.2741 15.4937 16.015 12.772 18.4778 11.079L18.499 11.0576C18.499 11.0576 18.499 11.0576 18.5202 11.0361C19.1359 10.5861 19.8365 10.2218 20.5796 9.96461C21.1316 9.7503 21.6836 9.60029 22.2568 9.49313C25.2079 8.87165 28.35 9.17168 29.5814 9.32169C25.8448 7.82155 22.8088 7.39294 20.2824 7.52152C18.499 8.55019 16.0999 10.3932 14.7412 13.5007C14.7412 13.5007 15.0384 10.3718 16.8642 8.12158C15.1445 8.63591 13.7433 9.40741 12.5756 10.1361C12.4695 10.2218 12.3846 10.3075 12.2784 10.3718C12.2359 11.6791 12.2784 13.5435 12.4482 16.2652C12.1298 15.858 11.3655 13.2863 11.1744 11.4005C9.9218 12.6649 9.05134 14.0364 8.45688 15.4508C8.73288 16.7367 9.32734 18.494 10.6436 20.0798C10.304 19.9084 8.69042 18.7511 7.84119 17.3582C6.56735 22.8444 9.05134 28.7378 12.1298 31.6738C13.5098 31.4595 15.7602 30.988 17.0341 30.0665C16.9916 30.2165 15.5904 31.9524 13.6159 32.8525C18.7962 35.9813 24.6559 35.4241 26.6303 34.6312C35.8657 31.288 32.5962 20.7228 31.8743 19.5226C32.5325 19.3083 34.146 21.1085 35.25 23.123ZM29.2205 18.5797C28.1377 18.6654 27.7131 18.1939 27.5857 17.7439C27.5645 17.701 30.4094 17.6582 30.4094 17.6582C30.4094 17.6582 30.282 18.494 29.2205 18.5797Z" fill="url(#paint2_linear)"/>
</g>
<defs>
<linearGradient id="paint0_linear" x1="21" y1="0" x2="21" y2="42" gradientUnits="userSpaceOnUse">
<stop stop-color="#141720"/>
<stop offset="1" stop-color="#0C0F16"/>
</linearGradient>
<linearGradient id="paint1_linear" x1="21" y1="0" x2="21" y2="42" gradientUnits="userSpaceOnUse">
<stop stop-color="#141720"/>
<stop offset="1" stop-color="#0C0F16"/>
</linearGradient>
<linearGradient id="paint2_linear" x1="21.3032" y1="35.2508" x2="21.1545" y2="7.50174" gradientUnits="userSpaceOnUse">
<stop stop-color="#B6923D"/>
<stop offset="1" stop-color="#FCF193"/>
</linearGradient>
</defs>
</svg>
