<svg width="16" height="16" viewBox="0 0 16 16" fill="none" xmlns="http://www.w3.org/2000/svg">
<path d="M16 3.71522H15.1171C14.8872 3.71522 14.2857 3.96495 14.2857 4.17754V11.8977C14.2857 12.1108 14.8872 12.2855 15.1171 12.2855H16V13.9996H10.2857V12.2855H11.4288V4.2863H11.2299L8.47915 13.9996H6.34941L3.63424 4.2863H3.4286V12.2855H4.57124V13.9996H0V12.2855H0.634002C0.8829 12.2855 1.14268 12.1108 1.14268 11.8977V4.17754C1.14268 3.96492 0.882933 3.71522 0.634002 3.71522H0V2.00098H5.92419L7.8585 8.85724H7.91055L9.86394 2.00098H16V3.71522Z" fill="url(#paint0_linear)"/>
<defs>
<linearGradient id="paint0_linear" x1="8" y1="2.00098" x2="8" y2="13.9996" gradientUnits="userSpaceOnUse">
<stop stop-color="#D1C881"/>
<stop offset="1" stop-color="#D0B65D"/>
</linearGradient>
</defs>
</svg>
