<svg width="16" height="16" viewBox="0 0 16 16" fill="none" xmlns="http://www.w3.org/2000/svg">
<path d="M10.5687 10.5056C9.92257 10.5056 9.39578 9.97885 9.39578 9.33267C9.39578 8.68658 9.92257 8.15979 10.5687 8.15979C11.2148 8.15979 11.7416 8.68658 11.7416 9.33267C11.7416 9.97885 11.2148 10.5056 10.5687 10.5056ZM10.7758 12.4304C9.97439 13.2296 8.44125 13.2927 7.99109 13.2927C7.54083 13.2927 6.00549 13.2296 5.20624 12.4304C5.08704 12.3112 5.08704 12.1198 5.20624 12.0004C5.32562 11.8811 5.51697 11.8811 5.63635 12.0004C6.14053 12.5048 7.21893 12.6849 7.99109 12.6849C8.76105 12.6849 9.84155 12.5048 10.3459 12.0004C10.4651 11.8811 10.6565 11.8811 10.7758 12.0004C10.8929 12.1198 10.8929 12.3112 10.7758 12.4304ZM4.23596 9.33276C4.23596 8.68668 4.76276 8.15988 5.40893 8.15988C6.05502 8.15988 6.58182 8.68668 6.58182 9.33276C6.58182 9.97885 6.05502 10.5057 5.40893 10.5057C4.76276 10.5056 4.23596 9.97885 4.23596 9.33276ZM15.4922 8.15988C15.4922 7.25259 14.7583 6.51871 13.851 6.51871C13.4075 6.51871 13.0067 6.69421 12.7119 6.98022C11.5908 6.1698 10.0442 5.64749 8.32196 5.5867L9.0694 2.06796L11.512 2.58807C11.5413 3.20944 12.05 3.70474 12.6782 3.70474C13.3265 3.70474 13.8511 3.18015 13.8511 2.53177C13.8511 1.88348 13.3265 1.35889 12.6782 1.35889C12.2166 1.35889 11.8227 1.62677 11.6313 2.01395L8.90277 1.43314C8.82623 1.41739 8.7475 1.43103 8.68213 1.47369C8.61694 1.51645 8.57181 1.58173 8.55615 1.65826C8.55615 1.65826 7.73666 5.56198 7.73666 5.5845C5.98297 5.62946 4.40707 6.15405 3.26797 6.97574C2.97308 6.69211 2.57455 6.51871 2.13336 6.51871C1.22607 6.51871 0.492188 7.25479 0.492188 8.15988C0.492188 8.8262 0.890625 9.40033 1.46246 9.65686C1.43774 9.81909 1.42419 9.98553 1.42419 10.1544C1.42419 12.6803 4.36432 14.7268 7.99109 14.7268C11.6178 14.7268 14.5579 12.6803 14.5579 10.1544C14.5579 9.98782 14.5444 9.82349 14.5197 9.66144C15.0893 9.40481 15.4922 8.83078 15.4922 8.15988Z" fill="url(#paint0_linear)"/>
<defs>
<linearGradient id="paint0_linear" x1="7.99219" y1="1.35889" x2="7.99219" y2="14.7268" gradientUnits="userSpaceOnUse">
<stop stop-color="#D1C881"/>
<stop offset="1" stop-color="#D0B65D"/>
</linearGradient>
</defs>
</svg>
