<svg width="16" height="16" viewBox="0 0 16 16" fill="none" xmlns="http://www.w3.org/2000/svg">
<g clip-path="url(#clip0)">
<path d="M16 3.03916C15.4111 3.3001 14.7792 3.47707 14.1153 3.55608C14.7932 3.15014 15.3121 2.50627 15.558 1.74141C14.9222 2.11733 14.2203 2.3903 13.4724 2.53827C12.8735 1.8994 12.0217 1.50146 11.0769 1.50146C9.26421 1.50146 7.79448 2.97119 7.79448 4.78285C7.79448 5.03979 7.82348 5.29074 7.87948 5.53071C5.152 5.39372 2.73346 4.08698 1.11477 2.10133C0.831817 2.58525 0.67085 3.14912 0.67085 3.75103C0.67085 4.88983 1.25075 5.89464 2.13059 6.4825C1.59268 6.46452 1.08677 6.31654 0.643869 6.07058V6.11158C0.643869 7.70127 1.77566 9.02802 3.27637 9.32998C3.00141 9.40396 2.71148 9.44496 2.41153 9.44496C2.19958 9.44496 1.99461 9.42396 1.79365 9.38396C2.21156 10.6887 3.42335 11.6375 4.85908 11.6635C3.73629 12.5434 2.32055 13.0663 0.78285 13.0663C0.517909 13.0663 0.256941 13.0503 0 13.0213C1.45273 13.9541 3.17741 14.498 5.03106 14.498C11.0689 14.498 14.3693 9.49696 14.3693 5.15979L14.3583 4.73487C15.0032 4.27493 15.561 3.69704 16 3.03916Z" fill="url(#paint0_linear)"/>
</g>
<defs>
<linearGradient id="paint0_linear" x1="7.99999" y1="1.50146" x2="7.99999" y2="14.498" gradientUnits="userSpaceOnUse">
<stop stop-color="#D1C881"/>
<stop offset="1" stop-color="#D0B65D"/>
</linearGradient>
<clipPath id="clip0">
<rect width="16" height="16" fill="white"/>
</clipPath>
</defs>
</svg>
