<svg width="14" height="14" viewBox="0 0 14 14" fill="none" xmlns="http://www.w3.org/2000/svg">
<path d="M4.45267 7.98785C4.41962 7.98785 4.38677 7.98367 4.35468 7.97532C1.78874 7.30407 -0.000759259 4.98554 2.41668e-07 2.33339V1.16672C2.41668e-07 0.951959 0.174127 0.777832 0.388889 0.777832H3.11111C3.32587 0.777832 3.5 0.951959 3.5 1.16672V4.66672C3.49886 5.67939 3.93902 6.6425 4.70541 7.30445C4.82845 7.41078 4.87251 7.58225 4.81592 7.73454C4.75914 7.88683 4.61369 7.98785 4.45115 7.98785H4.45267ZM0.777778 1.55561V2.33339C0.777399 4.10276 1.70215 5.74376 3.21612 6.65978C2.89141 6.04549 2.72203 5.36133 2.72222 4.66672V1.55561H0.777778Z" fill="#FFE682"/>
<path d="M9.54734 7.98785C9.3848 7.98785 9.23935 7.88683 9.18257 7.73454C9.12598 7.58225 9.17004 7.41078 9.29308 7.30445C10.06 6.64288 10.5008 5.67977 10.5002 4.66672V1.16672C10.5002 0.951959 10.6743 0.777832 10.8891 0.777832H13.6113C13.8261 0.777832 14.0002 0.951959 14.0002 1.16672V2.33339C14.0008 4.98592 12.2109 7.30445 9.64457 7.97532C9.61285 7.98348 9.58019 7.98766 9.54734 7.98785ZM11.278 1.55561V4.66672C11.2782 5.36133 11.1086 6.04549 10.7841 6.65978C12.2979 5.74376 13.2226 4.10276 13.2224 2.33339V1.55561H11.278Z" fill="#FFE682"/>
<path d="M10.8891 4.66667V0H3.11133V4.66667C3.10925 5.79289 3.59934 6.86404 4.45289 7.5989C4.85355 7.9519 5.3239 8.2168 5.83356 8.37668V11.2778H4.278C3.84886 11.2789 3.50136 11.6264 3.50022 12.0556V13.6111H10.5002V12.0556C10.4989 11.6264 10.1514 11.2789 9.72244 11.2778H8.16689V8.37668C8.67636 8.2168 9.14671 7.9519 9.54737 7.5989C10.4009 6.86404 10.891 5.79289 10.8891 4.66667Z" fill="#FFDA44"/>
<path d="M2.72217 13.2222H11.2777V13.9999H2.72217V13.2222Z" fill="#DDB200"/>
</svg>
